# Blender v2.80 (sub 75) OBJ File: ''
# www.blender.org
mtllib b-box.mtl
o Cone
v 0.000000 -1.000000 -1.000000
v 0.781832 -1.000000 -0.623490
v 0.974928 -1.000000 0.222521
v 0.433884 -1.000000 0.900969
v 0.000000 1.000000 0.000000
v -0.433884 -1.000000 0.900969
v -0.974928 -1.000000 0.222521
v -0.781832 -1.000000 -0.623490
vt 0.250000 0.490000
vt 0.250000 0.250000
vt 0.437640 0.399638
vt 0.483983 0.196595
vt 0.354132 0.033767
vt 0.145868 0.033767
vt 0.016017 0.196595
vt 0.062360 0.399638
vt 0.516017 0.196595
vt 0.562360 0.399638
vt 0.937640 0.399638
vt 0.750000 0.490000
vt 0.983983 0.196595
vt 0.854132 0.033767
vt 0.645868 0.033767
vn 0.3956 0.4107 -0.8215
vn 0.8889 0.4107 -0.2029
vn 0.7128 0.4107 0.5685
vn -0.0000 0.4107 0.9118
vn -0.7128 0.4107 0.5685
vn -0.8889 0.4107 -0.2029
vn -0.3956 0.4107 -0.8215
vn 0.0000 -1.0000 0.0000
usemtl None
s off
f 1/1/1 5/2/1 2/3/1
f 2/3/2 5/2/2 3/4/2
f 3/4/3 5/2/3 4/5/3
f 4/5/4 5/2/4 6/6/4
f 6/6/5 5/2/5 7/7/5
f 7/7/6 5/2/6 8/8/6
f 8/8/7 5/2/7 1/1/7
f 7/9/8 8/10/8 2/11/8
f 8/10/8 1/12/8 2/11/8
f 2/11/8 3/13/8 7/9/8
f 3/13/8 4/14/8 7/9/8
f 4/14/8 6/15/8 7/9/8
