ply
format ascii 1.0
comment Created by Blender 2.82 (sub 7) - www.blender.org, source file: 'car.blend'
element vertex 616
property float x
property float y
property float z
property float nx
property float ny
property float nz
property float s
property float t
element face 207
property list uchar uint vertex_indices
end_header
-0.942738 2.037384 0.363956 -1.000000 0.000000 -0.000000 0.647271 0.962690
-0.942738 1.208182 0.363955 -1.000000 0.000000 -0.000000 0.647271 0.971967
-0.942738 2.036634 0.571147 -1.000000 0.000000 -0.000000 0.653765 0.962698
-0.942738 2.036634 0.571147 -1.000000 -0.000001 0.000002 0.653765 0.962698
-0.942738 1.208182 0.363955 -1.000000 -0.000001 0.000002 0.647271 0.971967
-0.942738 1.873064 0.747452 -1.000000 -0.000001 0.000002 0.660198 0.964442
-0.942738 1.873064 0.747452 -1.000000 0.000000 0.000001 0.660198 0.964442
-0.942738 1.208182 0.363955 -1.000000 0.000000 0.000001 0.647271 0.971967
-0.942738 1.615057 0.828878 -1.000000 0.000000 0.000001 0.664029 0.967454
-0.942738 1.369385 0.746456 -1.000000 -0.000000 0.000001 0.660812 0.970859
-0.942738 1.208182 0.363955 -1.000000 -0.000002 0.000002 0.647271 0.971967
-0.942738 1.206255 0.571997 -1.000000 -0.000002 0.000002 0.655222 0.971988
-0.942738 1.369385 0.746456 -1.000000 -0.000002 0.000002 0.660812 0.970859
-1.164295 1.119409 1.379799 -0.020016 0.995378 0.093924 0.609548 0.738038
-1.164295 1.012214 2.519902 -0.020016 0.995378 0.093924 0.609543 0.929365
-1.052828 1.023027 2.424977 -0.020016 0.995378 0.093924 0.628169 0.913404
-1.052828 1.112326 1.482702 -0.020016 0.995378 0.093924 0.628174 0.755268
-1.164295 0.967024 1.460904 -1.000000 -0.000000 0.000000 0.623729 0.202477
-1.164295 0.887240 2.369298 -1.000000 -0.000000 0.000000 0.610113 0.354243
-1.164295 1.012214 2.519902 -1.000000 -0.000000 0.000000 0.630968 0.379444
-1.164295 1.119409 1.379799 -1.000000 -0.000000 0.000000 0.649215 0.188943
-1.164295 -0.361233 1.460904 -1.000000 -0.000000 0.000000 0.401769 0.202424
-1.164295 -0.353913 2.369298 -1.000000 -0.000000 0.000000 0.402735 0.354201
-1.164295 -0.175271 2.369298 -1.000000 -0.000000 0.000000 0.432581 0.354231
-1.164295 -0.167261 1.460904 -1.000000 -0.000000 0.000000 0.434193 0.202462
-1.164295 2.162384 1.379799 -1.000000 -0.000000 0.000000 0.823483 0.188869
-1.164295 2.162384 1.097605 -1.000000 -0.000000 0.000000 0.823463 0.141720
0.000000 2.561698 0.554256 -0.000000 1.000000 0.000001 0.236473 0.622728
-0.722378 2.561698 0.554256 -0.000000 1.000000 0.000001 0.115781 0.622720
-0.722378 2.561698 0.769574 -0.000000 1.000000 0.000001 0.115779 0.658697
-0.942738 -1.323807 0.363955 -1.000000 0.000000 -0.000000 0.628746 0.962690
-0.942738 -2.159991 0.363955 -1.000000 0.000000 -0.000000 0.628746 0.972045
-0.942738 -2.154147 0.571152 -1.000000 0.000000 -0.000000 0.635257 0.971979
-0.942738 -1.327115 0.490962 -1.000000 0.000000 -0.000000 0.633619 0.962727
0.000000 -2.659268 0.549561 -0.000246 -0.999998 -0.002128 0.561640 0.629216
-0.722378 -2.658912 0.549275 -0.000246 -0.999998 -0.002128 0.440946 0.629218
-0.722378 -2.658695 0.363955 -0.000246 -0.999998 -0.002128 0.440933 0.660182
0.000000 -2.658695 0.363955 -0.000246 -0.999998 -0.002128 0.561628 0.660219
0.000000 -2.661829 1.381079 -0.001666 -0.999996 -0.002058 0.670671 0.381408
-1.164295 -2.659886 1.379798 -0.001666 -0.999996 -0.002058 0.865192 0.381255
-0.722378 -2.660042 1.097604 -0.001666 -0.999996 -0.002058 0.791376 0.334078
-1.164295 -2.169109 2.382140 -1.000000 0.000000 0.000000 0.099468 0.356277
-1.164295 -2.268400 2.519902 -1.000000 0.000000 0.000000 0.082859 0.379264
-1.164295 -2.459718 1.461020 -1.000000 0.000000 0.000000 0.051142 0.202343
-1.164295 -2.659886 1.379798 -1.000000 0.000000 0.000000 0.017705 0.188735
-1.164295 -2.478102 0.549696 -1.000000 0.000000 0.000000 0.336939 0.629082
-1.164295 -2.478184 0.363955 -1.000000 0.000000 0.000000 0.336942 0.660100
-1.164295 -2.658695 0.363955 -1.000000 0.000000 0.000000 0.367095 0.660132
-1.164295 -2.658695 0.549100 -1.000000 0.000000 0.000000 0.367113 0.629200
-1.164295 -2.467046 1.097604 -1.000000 0.000000 0.000000 0.049949 0.141644
-1.164295 -1.739414 0.829809 -1.000000 0.000000 -0.000001 0.166266 0.098086
-1.164295 -2.467046 1.097604 -1.000000 0.000000 -0.000001 0.049949 0.141644
-1.164295 -0.361233 1.460904 -1.000000 0.000000 -0.000001 0.401769 0.202424
-1.164295 -2.659482 1.097604 -1.000000 0.000000 0.000000 0.017798 0.141630
-1.164295 1.115861 0.363955 -1.000000 0.000000 0.000000 0.649183 0.019194
0.000000 -2.658695 0.363955 0.000000 0.000000 -1.000000 0.974038 0.229438
-0.722378 -2.658695 0.363955 0.000000 0.000000 -1.000000 0.917188 0.229438
-0.722378 -2.546699 0.363955 0.000000 0.000000 -1.000000 0.917188 0.238253
-1.164295 -2.659886 1.379798 -0.001590 -0.945793 0.324765 0.852069 0.643860
-1.034121 -2.616335 1.507268 -0.001590 -0.945793 0.324765 0.830303 0.666351
-1.034121 -2.312389 2.392431 -0.001590 -0.945793 0.324765 0.830368 0.822724
-1.164295 -2.268400 2.519902 -0.001590 -0.945793 0.324765 0.852117 0.845254
-1.164295 2.561698 1.097605 -1.000000 0.000000 0.000000 0.904419 0.762632
-1.164295 2.561698 0.769574 -1.000000 0.000000 0.000000 0.959228 0.762614
-1.164295 2.162384 0.769574 -1.000000 0.000000 0.000000 0.959194 0.695897
-1.164295 2.162384 1.097605 -1.000000 0.000000 0.000000 0.904390 0.695914
-1.164295 2.561698 1.097605 0.000000 1.000000 0.000000 0.041945 0.713506
-1.164295 2.561698 1.379799 0.000000 1.000000 0.000000 0.041945 0.760661
-0.722378 2.561698 1.097605 0.000000 1.000000 0.000000 0.115779 0.713508
-1.164295 -2.659482 1.097604 -0.001030 -0.999998 -0.001750 0.969013 0.722944
-1.164295 -2.659012 0.769573 -0.001030 -0.999998 -0.001750 0.914220 0.722818
-0.722378 -2.659363 0.769573 -0.001030 -0.999998 -0.001750 0.914091 0.830273
-0.722378 -2.660042 1.097604 -0.001030 -0.999998 -0.001750 0.968901 0.830398
-1.164295 -1.739414 0.829809 -1.000000 0.000001 0.000001 0.166266 0.098086
-1.164295 -2.001312 0.743110 -1.000000 0.000001 0.000001 0.123495 0.078453
-1.164295 -2.473667 0.769573 -1.000000 0.000001 0.000001 0.048853 0.086868
-1.164295 -2.467046 1.097604 -1.000000 0.000001 0.000001 0.049949 0.141644
-1.164295 -2.467046 1.097604 -1.000000 0.000000 0.000000 0.908122 0.935910
-1.164295 -2.473667 0.769573 -1.000000 0.000000 0.000000 0.962899 0.934316
-1.164295 -2.659012 0.769573 -1.000000 0.000000 0.000000 0.962920 0.889246
-1.164295 -2.659482 1.097604 -1.000000 0.000000 0.000000 0.908127 0.889120
-1.164295 2.561698 0.769574 0.000000 1.000000 0.000000 0.959228 0.762614
-1.164295 2.561698 1.097605 0.000000 1.000000 0.000000 0.904419 0.762632
-0.722378 2.561698 1.097605 0.000000 1.000000 0.000000 0.904439 0.836465
-0.722378 2.561698 0.769574 0.000000 1.000000 0.000000 0.959250 0.836448
-1.164295 2.561698 0.769574 -1.000000 0.000000 0.000000 0.890163 0.086883
-1.164295 2.561698 0.554256 -1.000000 0.000000 0.000000 0.890153 0.050904
-1.164295 2.162385 0.555682 -1.000000 0.000000 0.000000 0.823440 0.051179
-1.164295 2.162384 0.769574 -1.000000 0.000000 0.000000 0.823446 0.086917
-1.164295 -2.659012 0.769573 -0.000642 -0.999998 -0.001743 0.865227 0.279295
-1.164295 -2.658695 0.549100 -0.000642 -0.999998 -0.001743 0.865236 0.242450
-0.722378 -2.658912 0.549275 -0.000642 -0.999998 -0.001743 0.791402 0.242456
-0.722378 -2.659363 0.769573 -0.000642 -0.999998 -0.001743 0.791393 0.279268
-0.942738 -2.001312 0.743110 -1.000000 0.000000 -0.000000 0.642373 0.970406
-0.942738 -1.331057 0.572078 -1.000000 0.000000 -0.000000 0.639417 0.962771
-1.164295 -2.473667 0.769573 -1.000000 0.000000 0.000000 0.048853 0.086868
-1.164295 -2.478102 0.549696 -1.000000 0.000000 0.000000 0.048120 0.050157
-1.164295 -2.658695 0.549100 -1.000000 0.000000 0.000000 0.017946 0.050036
-1.164295 -2.659012 0.769573 -1.000000 0.000000 0.000000 0.017884 0.086855
-1.164295 2.162385 0.363956 -0.000000 0.000000 -1.000000 0.882410 0.608847
-1.164295 2.561698 0.363956 -0.000000 0.000000 -1.000000 0.882410 0.640271
-0.722378 2.561701 0.363956 -0.000000 0.000000 -1.000000 0.917188 0.640271
-0.722378 2.162385 0.363956 -0.000000 0.000000 -1.000000 0.917188 0.608847
-1.164295 2.162385 0.555682 -1.000000 0.000000 0.000000 0.270627 0.661594
-1.164295 2.561698 0.554256 -1.000000 0.000000 0.000000 0.337341 0.661370
-1.164295 2.561698 0.363956 -1.000000 0.000000 0.000000 0.337350 0.629574
-1.164295 2.162385 0.363956 -1.000000 0.000000 0.000000 0.270637 0.629556
-1.164295 2.561698 1.379799 -1.000000 0.000000 0.000000 0.890200 0.188839
-1.164295 2.561698 1.097605 -1.000000 0.000000 0.000000 0.890182 0.141691
-1.164295 2.561698 0.554256 0.000000 1.000000 0.000001 0.041946 0.622720
-1.164295 2.561698 0.769574 0.000000 1.000000 0.000001 0.041945 0.658696
-0.722378 -2.658912 0.549275 -0.000245 -1.000000 -0.000584 0.440946 0.629218
-1.164295 -2.658695 0.549100 -0.000245 -1.000000 -0.000584 0.367113 0.629200
-1.164295 -2.658695 0.363955 -0.000245 -1.000000 -0.000584 0.367095 0.660132
-0.722378 -2.658695 0.363955 -0.000245 -1.000000 -0.000584 0.440933 0.660182
-1.164295 -2.659886 1.379798 -0.001267 -0.999998 -0.001433 0.865192 0.381255
-1.164295 -2.659482 1.097604 -0.001267 -0.999998 -0.001433 0.865209 0.334106
-0.722378 -2.660042 1.097604 -0.001267 -0.999998 -0.001433 0.791376 0.334078
-1.164295 -2.658695 0.363955 0.000000 0.000000 -1.000000 0.882410 0.229438
-1.164295 -2.478184 0.363955 0.000000 0.000000 -1.000000 0.882410 0.243644
0.000000 2.561698 1.379799 0.000000 1.000000 -0.000000 0.236473 0.760649
-0.722378 -2.659363 0.769573 -0.001048 -0.999995 -0.002794 0.791393 0.279268
0.000000 -2.659268 0.549561 -0.001048 -0.999995 -0.002794 0.670708 0.242492
0.000000 -2.661829 1.381079 -0.001048 -0.999995 -0.002794 0.670671 0.381408
-0.722378 -2.660042 1.097604 -0.001048 -0.999995 -0.002794 0.791376 0.334078
0.000000 2.561698 0.554256 -0.000000 1.000000 0.000000 0.236473 0.622728
-0.722378 2.561698 0.769574 -0.000000 1.000000 0.000000 0.115779 0.658697
-0.722378 -2.658912 0.549275 -0.000492 -0.999998 -0.002049 0.791402 0.242456
0.000000 -2.659268 0.549561 -0.000492 -0.999998 -0.002049 0.670708 0.242492
-0.722378 -2.659363 0.769573 -0.000492 -0.999998 -0.002049 0.791393 0.279268
0.000000 2.561698 0.363956 0.000000 0.000000 -1.000000 0.974038 0.640271
0.000000 2.162385 0.363956 0.000000 0.000000 -1.000000 0.974038 0.608847
-1.164295 2.036634 0.571147 -1.000000 0.000000 0.000000 0.803023 0.047432
-1.164295 2.162385 0.363956 -1.000000 0.000000 0.000000 0.823425 0.019142
-1.164295 2.037384 0.363956 -1.000000 0.000000 0.000000 0.803135 0.019148
-1.164295 1.115861 0.363955 -1.000000 0.000004 0.000000 0.649183 0.019194
-1.164295 1.119409 1.379799 -1.000000 0.000004 0.000000 0.649215 0.188943
-1.164295 1.206255 0.571997 -1.000000 0.000004 0.000000 0.664292 0.053821
-1.164295 1.208182 0.363955 -1.000000 0.000004 0.000000 0.664607 0.019189
-1.164295 -1.323807 0.363955 -1.000000 0.000000 0.000000 0.238746 0.019156
-1.164295 -1.327115 0.490962 -1.000000 0.000000 0.000000 0.238186 0.040366
-1.164295 -1.331057 0.572078 -1.000000 0.000000 0.000000 0.237522 0.065600
-0.942738 -1.331057 0.572078 -1.000000 0.000001 0.000003 0.639417 0.962771
-0.942738 -2.001312 0.743110 -1.000000 0.000001 0.000003 0.642373 0.970406
-0.942738 -1.739414 0.829809 -1.000000 0.000001 0.000003 0.646882 0.967542
-0.942738 -1.492167 0.754104 -1.000000 0.000001 0.000003 0.644834 0.965140
-1.164295 -2.154147 0.571152 -1.000000 0.000000 -0.000000 0.100007 0.047484
-1.164295 -2.001312 0.743110 -1.000000 0.000000 -0.000000 0.123495 0.078453
-1.164295 -2.159991 0.363955 -1.000000 0.000000 -0.000000 0.099040 0.019143
-1.164295 -2.478184 0.363955 -1.000000 0.000000 -0.000000 0.048117 0.019138
-1.164295 2.037384 0.363956 0.000000 -0.999993 -0.003620 0.652647 0.972104
-0.942738 2.037384 0.363956 0.000000 -0.999993 -0.003620 0.644147 0.972104
-0.942738 2.036634 0.571147 0.000000 -0.999993 -0.003620 0.644147 0.973997
-1.164295 2.036634 0.571147 0.000000 -0.999993 -0.003620 0.652647 0.973997
-1.164295 2.036634 0.571147 0.005840 -0.729405 -0.684057 0.652647 0.973997
-0.942738 2.036634 0.571147 0.005840 -0.729405 -0.684057 0.644147 0.973997
-0.942738 1.873064 0.747452 0.005840 -0.729405 -0.684057 0.644147 0.975873
-1.164295 1.869516 0.747452 0.005840 -0.729405 -0.684057 0.652647 0.975873
-1.164295 1.869516 0.747452 0.004819 -0.300959 -0.953625 0.672908 0.962690
-0.942738 1.873064 0.747452 0.004819 -0.300959 -0.953625 0.664408 0.962690
-0.942738 1.615057 0.828878 0.004819 -0.300959 -0.953625 0.664408 0.965703
-1.164295 1.611509 0.828878 0.004819 -0.300959 -0.953625 0.672908 0.965703
-1.164295 1.611509 0.828878 -0.005093 0.318068 -0.948054 0.672908 0.965703
-0.942738 1.615057 0.828878 -0.005093 0.318068 -0.948054 0.664408 0.965703
-0.942738 1.369385 0.746456 -0.005093 0.318068 -0.948054 0.664408 0.969107
-1.164295 1.365837 0.746456 -0.005093 0.318068 -0.948054 0.672908 0.969107
-1.164295 1.365837 0.746456 -0.005878 0.734125 -0.678989 0.672908 0.969107
-0.942738 1.369385 0.746456 -0.005878 0.734125 -0.678989 0.664408 0.969107
-0.942738 1.206255 0.571997 -0.005878 0.734125 -0.678989 0.664408 0.970237
-1.164295 1.206255 0.571997 -0.005878 0.734125 -0.678989 0.672908 0.970237
-0.942738 1.208182 0.363955 0.000000 0.999957 0.009263 0.712198 0.963076
-1.164295 1.208182 0.363955 0.000000 0.999957 0.009263 0.712198 0.963076
-1.164295 1.206255 0.571997 0.000000 0.999957 0.009263 0.636535 0.972104
-0.942738 1.206255 0.571997 0.000000 0.999957 0.009263 0.636535 0.974582
-1.164295 -1.323807 0.363955 0.000000 -0.999661 -0.026037 0.670267 0.972047
-0.942738 -1.323807 0.363955 0.000000 -0.999661 -0.026037 0.661767 0.972047
-0.942738 -1.327115 0.490962 0.000000 -0.999661 -0.026037 0.661767 0.973468
-1.164295 -1.327115 0.490962 0.000000 -0.999661 -0.026037 0.670267 0.973468
-1.164295 -2.154147 0.571152 0.000000 0.999602 -0.028194 0.661457 0.974122
-0.942738 -2.154147 0.571152 0.000000 0.999602 -0.028194 0.652957 0.974122
-0.942738 -2.159991 0.363955 0.000000 0.999602 -0.028194 0.652957 0.976021
-1.164295 -2.159991 0.363955 0.000000 0.999602 -0.028194 0.661457 0.976021
-1.164295 -1.327115 0.490962 0.000000 -0.998822 -0.048532 0.670267 0.973468
-0.942738 -1.327115 0.490962 0.000000 -0.998822 -0.048532 0.661767 0.973468
-0.942738 -1.331057 0.572078 0.000000 -0.998822 -0.048532 0.661767 0.975159
-1.164295 -1.331057 0.572078 0.000000 -0.998822 -0.048532 0.670267 0.975159
-1.164295 -2.001312 0.743110 0.000000 0.747446 -0.664322 0.661457 0.972047
-0.942738 -2.001312 0.743110 0.000000 0.747446 -0.664322 0.652957 0.972047
-0.942738 -2.154147 0.571152 0.000000 0.747446 -0.664322 0.652957 0.974122
-1.164295 -2.154147 0.571152 0.000000 0.747446 -0.664322 0.661457 0.974122
-1.164295 -1.331057 0.572078 0.000000 -0.748817 -0.662777 0.670267 0.975159
-0.942738 -1.331057 0.572078 0.000000 -0.748817 -0.662777 0.661767 0.975159
-0.942738 -1.492167 0.754104 0.000000 -0.748817 -0.662777 0.661767 0.976739
-1.164295 -1.492167 0.754104 0.000000 -0.748817 -0.662777 0.670267 0.976739
-1.164295 -1.492167 0.754104 0.000000 -0.292776 -0.956181 0.679078 0.970295
-0.942738 -1.492167 0.754104 0.000000 -0.292776 -0.956181 0.670577 0.970295
-0.942738 -1.739414 0.829809 0.000000 -0.292776 -0.956181 0.670577 0.972697
-1.164295 -1.739414 0.829809 0.000000 -0.292776 -0.956181 0.679078 0.972697
-1.164295 -1.739414 0.829809 0.000000 0.314271 -0.949333 0.679078 0.972697
-0.942738 -1.739414 0.829809 0.000000 0.314271 -0.949333 0.670577 0.972697
-0.942738 -2.001312 0.743110 0.000000 0.314271 -0.949333 0.670577 0.975561
-1.164295 -2.001312 0.743110 0.000000 0.314271 -0.949333 0.679078 0.975561
-0.942738 -2.159991 0.363955 0.000000 0.000000 -1.000000 0.148166 0.926538
-0.722378 -2.546699 0.363955 0.000000 0.000000 -1.000000 0.144515 0.932724
-1.164295 -2.478184 0.363955 0.000000 0.000000 -1.000000 0.151837 0.931588
-1.164295 -2.159991 0.363955 0.000000 0.000000 -1.000000 0.151837 0.926538
0.000000 -2.658695 0.363955 -0.000000 0.000000 -1.000000 0.132517 0.934579
-1.164295 -1.323807 0.363955 0.000000 0.000000 -1.000000 0.151837 0.912683
-1.164295 1.208182 0.363955 0.000000 0.000000 -1.000000 0.151837 0.870447
-0.942738 1.208182 0.363955 0.000000 0.000000 -1.000000 0.148166 0.870447
-0.942738 -1.323807 0.363955 0.000000 0.000000 -1.000000 0.148166 0.912683
-1.164295 2.037384 0.363956 0.000000 0.000000 -1.000000 0.151837 0.856707
-1.164295 2.162385 0.363956 0.000000 0.000000 -1.000000 0.151837 0.854695
-0.722378 2.162385 0.363956 0.000000 0.000000 -1.000000 0.144515 0.854695
-0.942738 2.037384 0.363956 0.000000 0.000000 -1.000000 0.148166 0.856707
0.000000 2.162385 0.363956 0.000000 0.000000 -1.000000 0.132517 0.854695
-1.164295 1.119409 1.379799 -1.000000 0.000001 -0.000001 0.649215 0.188943
-1.164295 1.365837 0.746456 -1.000000 0.000001 -0.000001 0.681165 0.078162
-1.164295 1.206255 0.571997 -1.000000 0.000001 -0.000001 0.664292 0.053821
-1.164295 1.119409 1.379799 -1.000000 0.000000 -0.000001 0.649215 0.188943
-1.164295 1.611509 0.828878 -1.000000 0.000000 -0.000001 0.732005 0.092157
-1.164295 1.365837 0.746456 -1.000000 0.000000 -0.000001 0.681165 0.078162
-1.164295 1.119409 1.379799 -1.000000 -0.000001 -0.000002 0.649215 0.188943
-1.164295 2.162384 0.769574 -1.000000 -0.000001 -0.000002 0.823446 0.086917
-1.164295 1.869516 0.747452 -1.000000 -0.000001 -0.000002 0.776993 0.075457
-1.164295 1.611509 0.828878 -1.000000 -0.000001 -0.000002 0.732005 0.092157
-1.164295 2.162384 0.769574 -1.000000 -0.000001 0.000001 0.823446 0.086917
-1.164295 2.162385 0.555682 -1.000000 -0.000001 0.000001 0.823440 0.051179
-1.164295 2.036634 0.571147 -1.000000 -0.000001 0.000001 0.803023 0.047432
-1.164295 1.869516 0.747452 -1.000000 -0.000001 0.000001 0.776993 0.075457
-1.164295 -1.492167 0.754104 -1.000000 -0.000000 0.000000 0.202136 0.089175
-1.164295 -1.739414 0.829809 -1.000000 -0.000000 -0.000000 0.166266 0.098086
-1.164295 2.162384 1.379799 0.000000 -0.000000 1.000000 0.776156 0.403444
1.164295 2.162384 1.379799 0.000000 -0.000000 1.000000 0.776156 0.403444
0.000000 2.561698 1.379799 0.000000 -0.000000 1.000000 0.842873 0.597969
0.942738 2.037384 0.363956 1.000000 -0.000000 0.000000 0.647271 0.962690
0.942738 2.036634 0.571147 1.000000 -0.000000 0.000000 0.653765 0.962698
0.942738 1.208182 0.363955 1.000000 -0.000000 0.000000 0.647271 0.971967
0.942738 2.036634 0.571147 1.000000 -0.000001 0.000002 0.653765 0.962698
0.942738 1.873064 0.747452 1.000000 -0.000001 0.000002 0.660198 0.964442
0.942738 1.208182 0.363955 1.000000 -0.000001 0.000002 0.647271 0.971967
0.942738 1.873064 0.747452 1.000000 0.000000 0.000001 0.660198 0.964442
0.942738 1.615057 0.828878 1.000000 0.000000 0.000001 0.664029 0.967454
0.942738 1.208182 0.363955 1.000000 0.000000 0.000001 0.647271 0.971967
0.942738 1.369385 0.746456 1.000000 -0.000000 0.000001 0.660812 0.970859
0.942738 1.208182 0.363955 1.000000 -0.000002 0.000002 0.647271 0.971967
0.942738 1.369385 0.746456 1.000000 -0.000002 0.000002 0.660812 0.970859
0.942738 1.206255 0.571997 1.000000 -0.000002 0.000002 0.655222 0.971988
-1.052828 1.112326 1.482702 0.000000 0.997640 0.068669 0.628174 0.755268
1.052828 1.112326 1.482702 0.000000 0.997640 0.068669 0.628174 0.755268
1.164295 1.119409 1.379799 0.000000 0.997640 0.068669 0.609548 0.738038
-1.164295 1.119409 1.379799 0.000000 0.997640 0.068669 0.609548 0.738038
-1.164295 1.012214 2.519902 0.000000 0.993575 0.113180 0.609543 0.929365
1.164295 1.012214 2.519902 0.000000 0.993575 0.113180 0.609543 0.929365
1.052828 1.023027 2.424977 0.000000 0.993575 0.113180 0.628169 0.913404
-1.052828 1.023027 2.424977 0.000000 0.993575 0.113180 0.628169 0.913404
1.164295 1.119409 1.379799 0.020016 0.995378 0.093924 0.609548 0.738038
1.052828 1.112326 1.482702 0.020016 0.995378 0.093924 0.628174 0.755268
1.052828 1.023027 2.424977 0.020016 0.995378 0.093924 0.628169 0.913404
1.164295 1.012214 2.519902 0.020016 0.995378 0.093924 0.609543 0.929365
1.164295 0.967024 1.460904 1.000000 0.000000 0.000000 0.623729 0.202477
1.164295 1.119409 1.379799 1.000000 0.000000 0.000000 0.649215 0.188943
1.164295 1.012214 2.519902 1.000000 0.000000 0.000000 0.630968 0.379444
1.164295 0.887240 2.369298 1.000000 0.000000 0.000000 0.610113 0.354243
1.164295 -0.361233 1.460904 1.000000 0.000000 0.000000 0.401769 0.202424
1.164295 -0.167261 1.460904 1.000000 0.000000 0.000000 0.434193 0.202462
1.164295 -0.175271 2.369298 1.000000 0.000000 0.000000 0.432581 0.354231
1.164295 -0.353913 2.369298 1.000000 0.000000 0.000000 0.402735 0.354201
1.164295 2.162384 1.097605 1.000000 0.000000 0.000000 0.823463 0.141720
1.164295 2.162384 1.379799 1.000000 0.000000 0.000000 0.823483 0.188869
0.722378 2.561698 0.769574 0.000000 1.000000 0.000001 0.115779 0.658697
0.722378 2.561698 0.554256 0.000000 1.000000 0.000001 0.115781 0.622720
-1.164295 -2.268400 2.519902 0.000000 -0.000000 1.000000 0.034373 0.414008
1.164295 -2.268400 2.519902 0.000000 -0.000000 1.000000 0.034373 0.414008
1.164295 1.012214 2.519902 0.000000 -0.000000 1.000000 0.582487 0.414008
-1.164295 1.012214 2.519902 0.000000 -0.000000 1.000000 0.582487 0.414008
0.942738 -1.323807 0.363955 1.000000 -0.000000 0.000000 0.628746 0.962690
0.942738 -1.327115 0.490962 1.000000 -0.000000 0.000000 0.633619 0.962727
0.942738 -2.154147 0.571152 1.000000 -0.000000 0.000000 0.635257 0.971979
0.942738 -2.159991 0.363955 1.000000 -0.000000 0.000000 0.628746 0.972045
0.000000 -2.659268 0.549561 0.000246 -0.999998 -0.002128 0.561640 0.629216
0.000000 -2.658695 0.363955 0.000246 -0.999998 -0.002128 0.561628 0.660219
0.722378 -2.658695 0.363955 0.000246 -0.999998 -0.002128 0.440933 0.660182
0.722378 -2.658912 0.549275 0.000246 -0.999998 -0.002128 0.440946 0.629218
-1.034121 -2.616335 1.507268 0.000000 -0.945795 0.324765 0.227018 0.808870
1.034121 -2.616335 1.507268 0.000000 -0.945795 0.324765 0.227018 0.808870
1.034121 -2.312389 2.392431 0.000000 -0.945795 0.324765 0.227001 0.965236
-1.034121 -2.312389 2.392431 0.000000 -0.945795 0.324765 0.227001 0.965236
0.000000 -2.661829 1.381079 0.001666 -0.999996 -0.002058 0.670671 0.381408
0.722378 -2.660042 1.097604 0.001666 -0.999996 -0.002058 0.791376 0.334078
1.164295 -2.659886 1.379798 0.001666 -0.999996 -0.002058 0.865192 0.381255
1.164295 -2.268400 2.519902 1.000000 -0.000000 -0.000000 0.082859 0.379264
1.164295 -2.169109 2.382140 1.000000 -0.000000 -0.000000 0.099468 0.356277
1.164295 -2.659886 1.379798 1.000000 0.000000 -0.000000 0.017705 0.188735
1.164295 -2.459718 1.461020 1.000000 0.000000 -0.000000 0.051142 0.202343
1.164295 -2.478102 0.549696 1.000000 0.000000 -0.000000 0.336939 0.629082
1.164295 -2.658695 0.549100 1.000000 0.000000 -0.000000 0.367113 0.629200
1.164295 -2.658695 0.363955 1.000000 0.000000 -0.000000 0.367095 0.660132
1.164295 -2.478184 0.363955 1.000000 0.000000 -0.000000 0.336942 0.660100
1.164295 -2.467046 1.097604 1.000000 0.000000 -0.000000 0.049949 0.141644
1.164295 -1.739414 0.829809 1.000000 0.000000 -0.000001 0.166266 0.098086
1.164295 -0.361233 1.460904 1.000000 0.000000 -0.000001 0.401769 0.202424
1.164295 -2.467046 1.097604 1.000000 0.000000 -0.000001 0.049949 0.141644
1.164295 -2.659482 1.097604 1.000000 0.000000 0.000000 0.017798 0.141630
1.164295 1.115861 0.363955 1.000000 0.000000 0.000000 0.649183 0.019194
0.722378 -2.546699 0.363955 0.000000 0.000000 -1.000000 0.917188 0.238253
0.722378 -2.658695 0.363955 0.000000 0.000000 -1.000000 0.917188 0.229438
0.000000 -2.661829 1.381079 0.000000 -0.940731 0.339154 0.657554 0.643622
1.034121 -2.616335 1.507268 0.000000 -0.940731 0.339154 0.830303 0.666351
-1.034121 -2.616335 1.507268 0.000000 -0.940731 0.339154 0.830303 0.666351
1.164295 -2.659886 1.379798 0.001590 -0.945793 0.324765 0.852069 0.643860
1.164295 -2.268400 2.519902 0.001590 -0.945793 0.324765 0.852117 0.845254
1.034121 -2.312389 2.392431 0.001590 -0.945793 0.324765 0.830368 0.822724
1.034121 -2.616335 1.507268 0.001590 -0.945793 0.324765 0.830303 0.666351
-1.034121 -2.312389 2.392431 0.000000 -0.945296 0.326215 0.830368 0.822724
1.034121 -2.312389 2.392431 0.000000 -0.945296 0.326215 0.830368 0.822724
1.164295 -2.268400 2.519902 0.000000 -0.945296 0.326215 0.852117 0.845254
-1.164295 -2.268400 2.519902 0.000000 -0.945296 0.326215 0.852117 0.845254
1.164295 2.561698 1.097605 1.000000 0.000000 -0.000000 0.904419 0.762632
1.164295 2.162384 1.097605 1.000000 0.000000 -0.000000 0.904390 0.695914
1.164295 2.162384 0.769574 1.000000 0.000000 -0.000000 0.959194 0.695897
1.164295 2.561698 0.769574 1.000000 0.000000 -0.000000 0.959228 0.762614
1.164295 2.561698 1.097605 -0.000000 1.000000 0.000000 0.041945 0.713506
0.722378 2.561698 1.097605 -0.000000 1.000000 0.000000 0.115779 0.713508
1.164295 2.561698 1.379799 -0.000000 1.000000 0.000000 0.041945 0.760661
1.164295 -2.659482 1.097604 0.001030 -0.999998 -0.001750 0.969013 0.722944
0.722378 -2.660042 1.097604 0.001030 -0.999998 -0.001750 0.968901 0.830398
0.722378 -2.659363 0.769573 0.001030 -0.999998 -0.001750 0.914091 0.830273
1.164295 -2.659012 0.769573 0.001030 -0.999998 -0.001750 0.914220 0.722818
1.164295 -1.739414 0.829809 1.000000 0.000001 0.000001 0.166266 0.098086
1.164295 -2.467046 1.097604 1.000000 0.000001 0.000001 0.049949 0.141644
1.164295 -2.473667 0.769573 1.000000 0.000001 0.000001 0.048853 0.086868
1.164295 -2.001312 0.743110 1.000000 0.000001 0.000001 0.123495 0.078453
1.164295 -2.467046 1.097604 1.000000 0.000000 -0.000000 0.908122 0.935910
1.164295 -2.659482 1.097604 1.000000 0.000000 -0.000000 0.908127 0.889120
1.164295 -2.659012 0.769573 1.000000 0.000000 -0.000000 0.962920 0.889246
1.164295 -2.473667 0.769573 1.000000 0.000000 -0.000000 0.962899 0.934316
1.164295 2.561698 0.769574 0.000000 1.000000 0.000000 0.959228 0.762614
0.722378 2.561698 0.769574 0.000000 1.000000 0.000000 0.959250 0.836448
0.722378 2.561698 1.097605 0.000000 1.000000 0.000000 0.904439 0.836465
1.164295 2.561698 1.097605 0.000000 1.000000 0.000000 0.904419 0.762632
1.164295 2.561698 0.769574 1.000000 0.000000 -0.000000 0.890163 0.086883
1.164295 2.162384 0.769574 1.000000 0.000000 -0.000000 0.823446 0.086917
1.164295 2.162385 0.555682 1.000000 0.000000 -0.000000 0.823440 0.051179
1.164295 2.561698 0.554256 1.000000 0.000000 -0.000000 0.890153 0.050904
1.164295 -2.659012 0.769573 0.000642 -0.999998 -0.001743 0.865227 0.279295
0.722378 -2.659363 0.769573 0.000642 -0.999998 -0.001743 0.791393 0.279268
0.722378 -2.658912 0.549275 0.000642 -0.999998 -0.001743 0.791402 0.242456
1.164295 -2.658695 0.549100 0.000642 -0.999998 -0.001743 0.865236 0.242450
0.942738 -1.331057 0.572078 1.000000 -0.000000 0.000000 0.639417 0.962771
0.942738 -2.001312 0.743110 1.000000 -0.000000 0.000000 0.642373 0.970406
1.164295 -2.473667 0.769573 1.000000 0.000000 -0.000000 0.048853 0.086868
1.164295 -2.659012 0.769573 1.000000 0.000000 -0.000000 0.017884 0.086855
1.164295 -2.658695 0.549100 1.000000 0.000000 -0.000000 0.017946 0.050036
1.164295 -2.478102 0.549696 1.000000 0.000000 -0.000000 0.048120 0.050157
1.164295 2.162385 0.363956 0.000000 0.000000 -1.000000 0.882410 0.608847
0.722378 2.162385 0.363956 0.000000 0.000000 -1.000000 0.917188 0.608847
0.722378 2.561701 0.363956 0.000000 0.000000 -1.000000 0.917188 0.640271
1.164295 2.561698 0.363956 0.000000 0.000000 -1.000000 0.882410 0.640271
-1.164295 1.119409 1.379799 0.000000 -0.000000 1.000000 0.601901 0.403442
1.164295 1.119409 1.379799 0.000000 -0.000000 1.000000 0.601901 0.403442
1.164295 2.162385 0.555682 1.000000 0.000000 0.000000 0.270627 0.661594
1.164295 2.162385 0.363956 1.000000 0.000000 0.000000 0.270637 0.629556
1.164295 2.561698 0.363956 1.000000 0.000000 0.000000 0.337350 0.629574
1.164295 2.561698 0.554256 1.000000 0.000000 0.000000 0.337341 0.661370
1.164295 2.561698 1.097605 1.000000 0.000000 0.000000 0.890182 0.141691
1.164295 2.561698 1.379799 1.000000 0.000000 0.000000 0.890200 0.188839
1.164295 2.561698 0.769574 0.000000 1.000000 0.000001 0.041945 0.658696
1.164295 2.561698 0.554256 0.000000 1.000000 0.000001 0.041946 0.622720
0.722378 -2.658912 0.549275 0.000245 -1.000000 -0.000584 0.440946 0.629218
0.722378 -2.658695 0.363955 0.000245 -1.000000 -0.000584 0.440933 0.660182
1.164295 -2.658695 0.363955 0.000245 -1.000000 -0.000584 0.367095 0.660132
1.164295 -2.658695 0.549100 0.000245 -1.000000 -0.000584 0.367113 0.629200
1.164295 -2.659886 1.379798 0.001267 -0.999998 -0.001433 0.865192 0.381255
0.722378 -2.660042 1.097604 0.001267 -0.999998 -0.001433 0.791376 0.334078
1.164295 -2.659482 1.097604 0.001267 -0.999998 -0.001433 0.865209 0.334106
1.164295 -2.478184 0.363955 -0.000000 0.000000 -1.000000 0.882410 0.243644
1.164295 -2.658695 0.363955 -0.000000 0.000000 -1.000000 0.882410 0.229438
0.722378 -2.659363 0.769573 0.001048 -0.999995 -0.002794 0.791393 0.279268
0.722378 -2.660042 1.097604 0.001048 -0.999995 -0.002794 0.791376 0.334078
0.000000 -2.661829 1.381079 0.001048 -0.999995 -0.002794 0.670671 0.381408
0.000000 -2.659268 0.549561 0.001048 -0.999995 -0.002794 0.670708 0.242492
0.722378 2.561698 0.769574 0.000000 1.000000 0.000000 0.115779 0.658697
0.722378 -2.658912 0.549275 0.000492 -0.999998 -0.002049 0.791402 0.242456
0.722378 -2.659363 0.769573 0.000492 -0.999998 -0.002049 0.791393 0.279268
0.000000 -2.659268 0.549561 0.000492 -0.999998 -0.002049 0.670708 0.242492
1.164295 2.036634 0.571147 1.000000 0.000000 0.000000 0.803023 0.047432
1.164295 2.037384 0.363956 1.000000 0.000000 0.000000 0.803135 0.019148
1.164295 2.162385 0.363956 1.000000 0.000000 0.000000 0.823425 0.019142
1.164295 1.115861 0.363955 1.000000 0.000004 0.000000 0.649183 0.019194
1.164295 1.208182 0.363955 1.000000 0.000004 0.000000 0.664607 0.019189
1.164295 1.206255 0.571997 1.000000 0.000004 0.000000 0.664292 0.053821
1.164295 1.119409 1.379799 1.000000 0.000004 0.000000 0.649215 0.188943
1.164295 -1.327115 0.490962 1.000000 -0.000000 -0.000000 0.238186 0.040366
1.164295 -1.323807 0.363955 1.000000 -0.000000 -0.000000 0.238746 0.019156
1.164295 -1.331057 0.572078 1.000000 -0.000000 -0.000000 0.237522 0.065600
0.942738 -1.331057 0.572078 1.000000 0.000001 0.000003 0.639417 0.962771
0.942738 -1.492167 0.754104 1.000000 0.000001 0.000003 0.644834 0.965140
0.942738 -1.739414 0.829809 1.000000 0.000001 0.000003 0.646882 0.967542
0.942738 -2.001312 0.743110 1.000000 0.000001 0.000003 0.642373 0.970406
1.164295 -2.154147 0.571152 1.000000 -0.000000 0.000000 0.100007 0.047484
1.164295 -2.001312 0.743110 1.000000 -0.000000 0.000000 0.123495 0.078453
1.164295 -2.159991 0.363955 1.000000 -0.000000 0.000000 0.099040 0.019143
1.164295 -2.478184 0.363955 1.000000 -0.000000 0.000000 0.048117 0.019138
1.164295 2.037384 0.363956 0.000000 -0.999993 -0.003620 0.652647 0.972104
1.164295 2.036634 0.571147 0.000000 -0.999993 -0.003620 0.652647 0.973997
0.942738 2.036634 0.571147 0.000000 -0.999993 -0.003620 0.644147 0.973997
0.942738 2.037384 0.363956 0.000000 -0.999993 -0.003620 0.644147 0.972104
1.164295 2.036634 0.571147 -0.005840 -0.729405 -0.684057 0.652647 0.973997
1.164295 1.869516 0.747452 -0.005840 -0.729405 -0.684057 0.652647 0.975873
0.942738 1.873064 0.747452 -0.005840 -0.729405 -0.684057 0.644147 0.975873
0.942738 2.036634 0.571147 -0.005840 -0.729405 -0.684057 0.644147 0.973997
1.164295 1.869516 0.747452 -0.004819 -0.300959 -0.953625 0.672908 0.962690
1.164295 1.611509 0.828878 -0.004819 -0.300959 -0.953625 0.672908 0.965703
0.942738 1.615057 0.828878 -0.004819 -0.300959 -0.953625 0.664408 0.965703
0.942738 1.873064 0.747452 -0.004819 -0.300959 -0.953625 0.664408 0.962690
1.164295 1.611509 0.828878 0.005093 0.318068 -0.948054 0.672908 0.965703
1.164295 1.365837 0.746456 0.005093 0.318068 -0.948054 0.672908 0.969107
0.942738 1.369385 0.746456 0.005093 0.318068 -0.948054 0.664408 0.969107
0.942738 1.615057 0.828878 0.005093 0.318068 -0.948054 0.664408 0.965703
1.164295 1.365837 0.746456 0.005878 0.734125 -0.678989 0.672908 0.969107
1.164295 1.206255 0.571997 0.005878 0.734125 -0.678989 0.672908 0.970237
0.942738 1.206255 0.571997 0.005878 0.734125 -0.678989 0.664408 0.970237
0.942738 1.369385 0.746456 0.005878 0.734125 -0.678989 0.664408 0.969107
0.942738 1.208182 0.363955 0.000000 0.999957 0.009263 0.712198 0.963076
0.942738 1.206255 0.571997 0.000000 0.999957 0.009263 0.636535 0.974582
1.164295 1.206255 0.571997 0.000000 0.999957 0.009263 0.636535 0.972104
1.164295 1.208182 0.363955 0.000000 0.999957 0.009263 0.712198 0.963076
1.164295 -1.323807 0.363955 0.000000 -0.999661 -0.026037 0.670267 0.972047
1.164295 -1.327115 0.490962 0.000000 -0.999661 -0.026037 0.670267 0.973468
0.942738 -1.327115 0.490962 0.000000 -0.999661 -0.026037 0.661767 0.973468
0.942738 -1.323807 0.363955 0.000000 -0.999661 -0.026037 0.661767 0.972047
1.164295 -2.154147 0.571152 0.000000 0.999602 -0.028194 0.661457 0.974122
1.164295 -2.159991 0.363955 0.000000 0.999602 -0.028194 0.661457 0.976021
0.942738 -2.159991 0.363955 0.000000 0.999602 -0.028194 0.652957 0.976021
0.942738 -2.154147 0.571152 0.000000 0.999602 -0.028194 0.652957 0.974122
1.164295 -1.327115 0.490962 0.000000 -0.998822 -0.048532 0.670267 0.973468
1.164295 -1.331057 0.572078 0.000000 -0.998822 -0.048532 0.670267 0.975159
0.942738 -1.331057 0.572078 0.000000 -0.998822 -0.048532 0.661767 0.975159
0.942738 -1.327115 0.490962 0.000000 -0.998822 -0.048532 0.661767 0.973468
1.164295 -2.001312 0.743110 0.000000 0.747446 -0.664322 0.661457 0.972047
1.164295 -2.154147 0.571152 0.000000 0.747446 -0.664322 0.661457 0.974122
0.942738 -2.154147 0.571152 0.000000 0.747446 -0.664322 0.652957 0.974122
0.942738 -2.001312 0.743110 0.000000 0.747446 -0.664322 0.652957 0.972047
1.164295 -1.331057 0.572078 0.000000 -0.748817 -0.662777 0.670267 0.975159
1.164295 -1.492167 0.754104 0.000000 -0.748817 -0.662777 0.670267 0.976739
0.942738 -1.492167 0.754104 0.000000 -0.748817 -0.662777 0.661767 0.976739
0.942738 -1.331057 0.572078 0.000000 -0.748817 -0.662777 0.661767 0.975159
1.164295 -1.492167 0.754104 0.000000 -0.292776 -0.956181 0.679078 0.970295
1.164295 -1.739414 0.829809 0.000000 -0.292776 -0.956181 0.679078 0.972697
0.942738 -1.739414 0.829809 0.000000 -0.292776 -0.956181 0.670577 0.972697
0.942738 -1.492167 0.754104 0.000000 -0.292776 -0.956181 0.670577 0.970295
1.164295 -1.739414 0.829809 0.000000 0.314271 -0.949333 0.679078 0.972697
1.164295 -2.001312 0.743110 0.000000 0.314271 -0.949333 0.679078 0.975561
0.942738 -2.001312 0.743110 0.000000 0.314271 -0.949333 0.670577 0.975561
0.942738 -1.739414 0.829809 0.000000 0.314271 -0.949333 0.670577 0.972697
0.942738 -2.159991 0.363955 -0.000000 0.000000 -1.000000 0.148166 0.926538
1.164295 -2.159991 0.363955 -0.000000 0.000000 -1.000000 0.151837 0.926538
1.164295 -2.478184 0.363955 -0.000000 0.000000 -1.000000 0.151837 0.931588
0.722378 -2.546699 0.363955 -0.000000 0.000000 -1.000000 0.144515 0.932724
1.164295 -1.323807 0.363955 0.000000 0.000000 -1.000000 0.151837 0.912683
0.942738 -1.323807 0.363955 0.000000 0.000000 -1.000000 0.148166 0.912683
0.942738 1.208182 0.363955 0.000000 0.000000 -1.000000 0.148166 0.870447
1.164295 1.208182 0.363955 0.000000 0.000000 -1.000000 0.151837 0.870447
1.164295 2.037384 0.363956 0.000000 0.000000 -1.000000 0.151837 0.856707
0.942738 2.037384 0.363956 0.000000 0.000000 -1.000000 0.148166 0.856707
0.722378 2.162385 0.363956 0.000000 0.000000 -1.000000 0.144515 0.854695
1.164295 2.162385 0.363956 0.000000 0.000000 -1.000000 0.151837 0.854695
1.164295 1.119409 1.379799 1.000000 0.000001 -0.000001 0.649215 0.188943
1.164295 1.206255 0.571997 1.000000 0.000001 -0.000001 0.664292 0.053821
1.164295 1.365837 0.746456 1.000000 0.000001 -0.000001 0.681165 0.078162
1.164295 1.119409 1.379799 1.000000 0.000000 -0.000001 0.649215 0.188943
1.164295 1.365837 0.746456 1.000000 0.000000 -0.000001 0.681165 0.078162
1.164295 1.611509 0.828878 1.000000 0.000000 -0.000001 0.732005 0.092157
1.164295 1.119409 1.379799 1.000000 -0.000001 -0.000002 0.649215 0.188943
1.164295 1.611509 0.828878 1.000000 -0.000001 -0.000002 0.732005 0.092157
1.164295 1.869516 0.747452 1.000000 -0.000001 -0.000002 0.776993 0.075457
1.164295 2.162384 0.769574 1.000000 -0.000001 -0.000002 0.823446 0.086917
1.164295 2.162384 0.769574 1.000000 -0.000001 0.000001 0.823446 0.086917
1.164295 1.869516 0.747452 1.000000 -0.000001 0.000001 0.776993 0.075457
1.164295 2.036634 0.571147 1.000000 -0.000001 0.000001 0.803023 0.047432
1.164295 2.162385 0.555682 1.000000 -0.000001 0.000001 0.823440 0.051179
1.164295 -1.492167 0.754104 1.000000 -0.000000 0.000000 0.202136 0.089175
1.164295 -1.739414 0.829809 1.000000 -0.000000 -0.000000 0.166266 0.098086
0.000000 -2.661829 1.381079 -0.001935 -0.945685 0.325079 0.657554 0.643622
-1.034121 -2.616335 1.507268 -0.001935 -0.945685 0.325079 0.830303 0.666351
-1.164295 -2.659886 1.379798 -0.001935 -0.945685 0.325079 0.852069 0.643860
0.000000 -2.661829 1.381079 0.001935 -0.945685 0.325079 0.657554 0.643622
1.164295 -2.659886 1.379798 0.001935 -0.945685 0.325079 0.852069 0.643860
1.034121 -2.616335 1.507268 0.001935 -0.945685 0.325079 0.830303 0.666351
1.164295 2.561698 1.379799 0.000000 -0.000000 1.000000 0.842872 0.403442
-1.164295 2.561698 1.379799 0.000000 -0.000000 1.000000 0.842872 0.403442
1.164295 -0.361233 1.460904 0.000000 -0.999968 0.008058 0.401769 0.202424
1.164295 -0.353913 2.369298 0.000000 -0.999968 0.008058 0.402735 0.354201
1.144341 -0.353913 2.369298 0.000000 -0.999968 0.008058 0.402735 0.354201
1.144341 -0.361233 1.460904 0.000000 -0.999968 0.008058 0.401769 0.202424
-1.164295 0.887240 2.369298 0.000000 -0.996165 -0.087493 0.610113 0.354243
-1.164295 0.967024 1.460904 0.000000 -0.996165 -0.087493 0.623729 0.202477
-1.144341 0.967024 1.460904 0.000000 -0.996165 -0.087493 0.623729 0.202477
-1.144341 0.887240 2.369298 0.000000 -0.996165 -0.087493 0.610113 0.354243
-1.164295 -0.361233 1.460904 0.000000 0.000055 1.000000 0.401769 0.202424
-1.164295 -2.459718 1.461020 0.000000 0.000055 1.000000 0.051142 0.202343
-1.144341 -2.459718 1.461020 0.000000 0.000055 1.000000 0.051142 0.202343
-1.144341 -0.361233 1.460904 0.000000 0.000055 1.000000 0.401769 0.202424
-1.052828 1.023027 2.424977 0.000000 0.094343 -0.995540 0.628169 0.913404
1.052828 1.023027 2.424977 0.000000 0.094343 -0.995540 0.628169 0.913404
1.052828 1.003162 2.423095 0.000000 0.094343 -0.995540 0.628169 0.913404
-1.052828 1.003162 2.423095 0.000000 0.094343 -0.995540 0.628169 0.913404
-1.164295 0.967024 1.460904 0.000000 -0.000000 1.000000 0.623729 0.202477
-1.164295 -0.167261 1.460904 0.000000 -0.000000 1.000000 0.434193 0.202462
-1.144341 -0.167261 1.460904 0.000000 -0.000000 1.000000 0.434193 0.202462
-1.144341 0.967024 1.460904 0.000000 -0.000000 1.000000 0.623729 0.202477
-1.144341 -0.167261 1.460904 -1.000000 -0.000000 0.000000 0.045243 0.809138
-1.144341 -0.175271 2.369298 -1.000000 -0.000000 0.000000 0.043904 0.960910
-1.144341 0.887240 2.369298 -1.000000 -0.000000 0.000000 0.221426 0.960910
-1.144341 0.967024 1.460904 -1.000000 -0.000000 0.000000 0.234757 0.809138
-1.144341 -0.361233 1.460904 -1.000000 0.000000 -0.000000 0.370733 0.810270
-1.144341 -2.459718 1.461020 -1.000000 0.000000 -0.000000 0.020135 0.807693
-1.144341 -2.169109 2.382140 -1.000000 0.000000 -0.000000 0.067549 0.961946
-1.144341 -0.353913 2.369298 -1.000000 0.000000 -0.000000 0.370835 0.962047
1.144341 -0.167261 1.460904 1.000000 0.000000 0.000000 0.045243 0.809138
1.144341 0.967024 1.460904 1.000000 0.000000 0.000000 0.234757 0.809138
1.144341 0.887240 2.369298 1.000000 0.000000 0.000000 0.221426 0.960910
1.144341 -0.175271 2.369298 1.000000 0.000000 0.000000 0.043904 0.960910
-1.052828 1.003162 2.423095 0.000000 0.995539 0.094347 0.052397 0.966436
1.052828 1.003162 2.423095 0.000000 0.995539 0.094347 0.052397 0.966436
1.052828 1.092461 1.480819 0.000000 0.995539 0.094347 0.052397 0.808298
-1.052828 1.092461 1.480819 0.000000 0.995539 0.094347 0.052397 0.808298
1.144341 -0.361233 1.460904 1.000000 -0.000000 0.000000 0.370733 0.810270
1.144341 -0.353913 2.369298 1.000000 -0.000000 0.000000 0.370835 0.962047
1.144341 -2.169109 2.382140 1.000000 -0.000000 0.000000 0.067549 0.961946
1.144341 -2.459718 1.461020 1.000000 -0.000000 0.000000 0.020135 0.807693
1.164295 -0.167261 1.460904 0.000000 -0.000000 1.000000 0.434193 0.202462
1.164295 0.967024 1.460904 0.000000 -0.000000 1.000000 0.623729 0.202477
1.144341 0.967024 1.460904 0.000000 -0.000000 1.000000 0.623729 0.202477
1.144341 -0.167261 1.460904 0.000000 -0.000000 1.000000 0.434193 0.202462
-1.164295 -0.175271 2.369298 0.000000 0.000000 -1.000000 0.432581 0.354231
-1.164295 0.887240 2.369298 0.000000 0.000000 -1.000000 0.610113 0.354243
-1.144341 0.887240 2.369298 0.000000 0.000000 -1.000000 0.610113 0.354243
-1.144341 -0.175271 2.369298 0.000000 0.000000 -1.000000 0.432581 0.354231
1.164295 -0.353913 2.369298 0.000000 -0.007075 -0.999975 0.402735 0.354201
1.164295 -2.169109 2.382140 0.000000 -0.007075 -0.999975 0.099468 0.356277
1.144341 -2.169109 2.382140 0.000000 -0.007075 -0.999975 0.099468 0.356277
1.144341 -0.353913 2.369298 0.000000 -0.007075 -0.999975 0.402735 0.354201
1.164295 0.967024 1.460904 0.000000 -0.996165 -0.087493 0.623729 0.202477
1.164295 0.887240 2.369298 0.000000 -0.996165 -0.087493 0.610113 0.354243
1.144341 0.887240 2.369298 0.000000 -0.996165 -0.087493 0.610113 0.354243
1.144341 0.967024 1.460904 0.000000 -0.996165 -0.087493 0.623729 0.202477
-1.164295 -0.167261 1.460904 0.000000 0.999961 0.008817 0.434193 0.202462
-1.164295 -0.175271 2.369298 0.000000 0.999961 0.008817 0.432581 0.354231
-1.144341 -0.175271 2.369298 0.000000 0.999961 0.008817 0.432581 0.354231
-1.144341 -0.167261 1.460904 0.000000 0.999961 0.008817 0.434193 0.202462
1.164295 -2.169109 2.382140 0.000000 0.953663 -0.300876 0.099468 0.356277
1.164295 -2.459718 1.461020 0.000000 0.953663 -0.300876 0.051142 0.202343
1.144341 -2.459718 1.461020 0.000000 0.953663 -0.300876 0.051142 0.202343
1.144341 -2.169109 2.382140 0.000000 0.953663 -0.300876 0.099468 0.356277
1.164295 0.887240 2.369298 0.000000 0.000000 -1.000000 0.610113 0.354243
1.164295 -0.175271 2.369298 0.000000 0.000000 -1.000000 0.432581 0.354231
1.144341 -0.175271 2.369298 0.000000 0.000000 -1.000000 0.432581 0.354231
1.144341 0.887240 2.369298 0.000000 0.000000 -1.000000 0.610113 0.354243
-1.052828 1.112326 1.482702 1.000000 -0.000000 -0.000000 0.628174 0.755268
-1.052828 1.023027 2.424977 1.000000 -0.000000 -0.000000 0.628169 0.913404
-1.052828 1.003162 2.423095 1.000000 -0.000000 -0.000000 0.628169 0.913404
-1.052828 1.092461 1.480819 1.000000 -0.000000 -0.000000 0.628174 0.755268
1.164295 -2.459718 1.461020 0.000000 0.000055 1.000000 0.051142 0.202343
1.164295 -0.361233 1.460904 0.000000 0.000055 1.000000 0.401769 0.202424
1.144341 -0.361233 1.460904 0.000000 0.000055 1.000000 0.401769 0.202424
1.144341 -2.459718 1.461020 0.000000 0.000055 1.000000 0.051142 0.202343
1.164295 -0.175271 2.369298 0.000000 0.999961 0.008817 0.432581 0.354231
1.164295 -0.167261 1.460904 0.000000 0.999961 0.008817 0.434193 0.202462
1.144341 -0.167261 1.460904 0.000000 0.999961 0.008817 0.434193 0.202462
1.144341 -0.175271 2.369298 0.000000 0.999961 0.008817 0.432581 0.354231
-1.164295 -0.353913 2.369298 0.000000 -0.999968 0.008058 0.402735 0.354201
-1.164295 -0.361233 1.460904 0.000000 -0.999968 0.008058 0.401769 0.202424
-1.144341 -0.361233 1.460904 0.000000 -0.999968 0.008058 0.401769 0.202424
-1.144341 -0.353913 2.369298 0.000000 -0.999968 0.008058 0.402735 0.354201
1.052828 1.023027 2.424977 -1.000000 0.000000 0.000000 0.628169 0.913404
1.052828 1.112326 1.482702 -1.000000 0.000000 0.000000 0.628174 0.755268
1.052828 1.092461 1.480819 -1.000000 0.000000 0.000000 0.628174 0.755268
1.052828 1.003162 2.423095 -1.000000 0.000000 0.000000 0.628169 0.913404
-1.164295 -2.169109 2.382140 0.000000 -0.007075 -0.999975 0.099468 0.356277
-1.164295 -0.353913 2.369298 0.000000 -0.007075 -0.999975 0.402735 0.354201
-1.144341 -0.353913 2.369298 0.000000 -0.007075 -0.999975 0.402735 0.354201
-1.144341 -2.169109 2.382140 0.000000 -0.007075 -0.999975 0.099468 0.356277
1.052828 1.112326 1.482702 0.000000 -0.094355 0.995539 0.628174 0.755268
-1.052828 1.112326 1.482702 0.000000 -0.094355 0.995539 0.628174 0.755268
-1.052828 1.092461 1.480819 0.000000 -0.094355 0.995539 0.628174 0.755268
1.052828 1.092461 1.480819 0.000000 -0.094355 0.995539 0.628174 0.755268
-1.164295 -2.459718 1.461020 0.000000 0.953663 -0.300876 0.051142 0.202343
-1.164295 -2.169109 2.382140 0.000000 0.953663 -0.300876 0.099468 0.356277
-1.144341 -2.169109 2.382140 0.000000 0.953663 -0.300876 0.099468 0.356277
-1.144341 -2.459718 1.461020 0.000000 0.953663 -0.300876 0.051142 0.202343
1.164295 2.561698 0.363956 0.000000 1.000000 0.000000 0.226850 0.977348
0.722378 2.561698 0.554256 0.000000 1.000000 0.000000 0.250414 0.987496
1.164295 2.561698 0.554256 0.000000 1.000000 0.000000 0.226850 0.987496
1.164295 2.561698 0.363956 0.000006 1.000000 0.000015 0.226850 0.977348
0.722378 2.561701 0.363956 0.000006 1.000000 0.000015 0.250414 0.977348
0.722378 2.561698 0.554256 0.000006 1.000000 0.000015 0.250414 0.987496
0.000000 2.561698 0.554256 -0.000004 1.000000 0.000000 0.288935 0.987496
0.722378 2.561701 0.363956 -0.000004 1.000000 0.000000 0.250414 0.977348
0.000000 2.561698 0.363956 -0.000004 1.000000 0.000000 0.288935 0.977348
-0.722378 2.561698 0.554256 0.000000 1.000000 -0.000000 0.327455 0.987496
0.000000 2.561698 0.554256 0.000000 1.000000 -0.000000 0.288935 0.987496
0.000000 2.561698 0.363956 0.000000 1.000000 -0.000000 0.288935 0.977348
0.722378 2.561701 0.363956 0.000000 1.000000 0.000015 0.250414 0.977348
0.000000 2.561698 0.554256 0.000000 1.000000 0.000015 0.288935 0.987496
0.722378 2.561698 0.554256 0.000000 1.000000 0.000015 0.250414 0.987496
-0.722378 2.561698 0.554256 0.000004 1.000000 0.000015 0.327455 0.987496
0.000000 2.561698 0.363956 0.000004 1.000000 0.000015 0.288935 0.977348
-0.722378 2.561701 0.363956 0.000004 1.000000 0.000015 0.327455 0.977348
-1.164295 2.561698 0.363956 -0.000006 1.000000 0.000000 0.351020 0.977348
-1.164295 2.561698 0.554256 -0.000006 1.000000 0.000000 0.351020 0.987496
-0.722378 2.561701 0.363956 -0.000006 1.000000 0.000000 0.327455 0.977348
-1.164295 2.561698 0.554256 0.000000 1.000000 0.000015 0.351020 0.987496
-0.722378 2.561698 0.554256 0.000000 1.000000 0.000015 0.327455 0.987496
-0.722378 2.561701 0.363956 0.000000 1.000000 0.000015 0.327455 0.977348
3 0 1 2
3 3 4 5
3 6 7 8
3 8 7 9
3 10 11 12
4 13 14 15 16
4 17 18 19 20
4 21 22 23 24
3 20 25 26
3 27 28 29
4 30 31 32 33
4 34 35 36 37
3 38 39 40
3 22 41 42
4 42 41 43 44
4 45 46 47 48
3 43 21 49
3 50 51 52
3 19 18 23
4 19 23 22 42
4 44 43 49 53
4 24 17 20 54
3 55 56 57
4 58 59 60 61
4 62 63 64 65
3 66 67 68
4 69 70 71 72
4 73 74 75 76
4 77 78 79 80
4 81 82 83 84
4 85 86 87 88
4 89 90 91 92
4 33 32 93 94
4 95 96 97 98
4 99 100 101 102
4 103 104 105 106
4 25 107 108 26
3 88 20 26
4 28 109 110 29
4 111 112 113 114
3 115 116 117
4 56 118 119 57
3 67 120 68
4 121 122 123 124
4 68 120 125 126
3 127 128 129
4 101 130 131 102
4 132 87 133 134
4 135 136 137 138
3 54 139 140
3 54 140 141
4 142 143 144 145
4 146 96 95 147
4 148 149 96 146
4 150 151 152 153
4 154 155 156 157
4 158 159 160 161
4 162 163 164 165
4 166 167 168 169
4 170 171 172 173
4 174 175 176 177
4 178 179 180 181
4 182 183 184 185
4 186 187 188 189
4 190 191 192 193
4 194 195 196 197
4 198 199 200 201
4 202 203 204 205
3 203 202 206
4 207 208 209 210
4 211 212 213 214
3 214 213 209
3 210 206 202
3 215 209 213
4 215 206 210 209
3 216 217 218
3 219 220 221
4 222 223 224 225
4 226 227 228 229
5 54 141 230 21 24
3 230 231 21
3 232 233 234
3 235 236 237
3 238 239 240
3 241 242 243
3 242 244 243
3 245 246 247
4 248 249 250 251
4 252 253 254 255
4 256 257 258 259
4 260 261 262 263
4 264 265 266 267
3 261 268 269
3 27 270 271
4 272 273 274 275
4 276 277 278 279
4 280 281 282 283
4 284 285 286 287
3 288 289 290
3 267 291 292
4 291 293 294 292
4 295 296 297 298
3 294 299 264
3 300 301 302
3 262 266 263
4 262 291 267 266
4 293 303 299 294
4 265 304 261 260
3 55 305 306
3 307 308 309
4 310 311 312 313
4 314 315 316 317
4 318 319 320 321
3 322 323 324
4 325 326 327 328
4 329 330 331 332
4 333 334 335 336
4 337 338 339 340
4 341 342 343 344
4 345 346 347 348
4 277 349 350 278
4 351 352 353 354
4 355 356 357 358
4 359 360 233 232
4 361 362 363 364
4 269 268 365 366
3 342 268 261
4 271 270 367 368
4 369 370 371 372
3 373 374 375
4 306 305 376 377
3 324 323 120
4 378 379 380 381
4 323 382 125 120
3 383 384 385
4 357 356 131 130
4 386 387 388 343
4 389 390 391 392
3 304 393 394
3 304 395 393
4 396 397 398 399
4 400 401 351 354
4 402 400 354 403
4 404 405 406 407
4 408 409 410 411
4 412 413 414 415
4 416 417 418 419
4 420 421 422 423
4 424 425 426 427
4 428 429 430 431
4 432 433 434 435
4 436 437 438 439
4 440 441 442 443
4 444 445 446 447
4 448 449 450 451
4 452 453 454 455
4 456 457 458 459
3 459 206 456
4 460 461 462 463
4 464 465 466 467
3 465 462 466
3 461 456 206
3 215 466 462
4 215 462 461 206
3 468 469 470
3 471 472 473
4 474 475 476 477
4 478 479 480 481
5 304 265 264 482 395
3 482 264 483
3 484 485 486
3 487 488 489
3 234 233 490
3 232 234 491
4 492 493 494 495
4 496 497 498 499
4 500 501 502 503
4 504 505 506 507
4 508 509 510 511
4 512 513 514 515
4 516 517 518 519
4 520 521 522 523
4 524 525 526 527
4 528 529 530 531
4 532 533 534 535
4 536 537 538 539
4 540 541 542 543
4 544 545 546 547
4 548 549 550 551
4 552 553 554 555
4 556 557 558 559
4 560 561 562 563
4 564 565 566 567
4 568 569 570 571
4 572 573 574 575
4 576 577 578 579
4 580 581 582 583
4 584 585 586 587
4 588 589 590 591
3 592 593 594
3 595 596 597
3 598 599 600
3 601 602 603
3 604 605 606
3 607 608 609
3 610 611 612
3 613 614 615
