# Blender v2.82 (sub 7) OBJ File: 'car.blend'
# www.blender.org
mtllib car_right_mirror.mtl
v 1.579701 1.554321 -0.971153
v 1.197438 1.554321 -0.971153
v 1.255577 1.508782 -1.095024
v 1.521561 1.508782 -1.095024
v 1.255577 1.300444 -1.095024
v 1.521561 1.300444 -1.095024
v 1.197438 1.254905 -0.971153
v 1.579701 1.254905 -0.971153
vt 0.676259 0.691276
vt 0.685353 0.711919
vt 0.726956 0.711919
vt 0.736051 0.691276
vt 0.263821 0.288406
vt 0.263821 0.261741
vt 0.229778 0.261741
vt 0.229778 0.288406
vt 0.691340 0.975504
vt 0.696893 0.962901
vt 0.660386 0.962901
vt 0.665938 0.975504
vt 0.512522 0.630518
vt 0.512522 0.659473
vt 0.549489 0.659473
vt 0.549489 0.630518
vt 0.177632 0.255664
vt 0.183461 0.273178
vt 0.210125 0.273178
vt 0.215954 0.255664
vt 0.203664 0.263526
vt 0.209493 0.281039
vt 0.236158 0.281040
vt 0.241986 0.263526
vn 0.0000 0.9386 -0.3451
vn 0.0000 0.0000 -1.0000
vn 0.0000 -0.9386 -0.3451
vn 0.0000 -0.0000 1.0000
vn -0.9052 0.0000 -0.4249
vn 0.9052 0.0000 -0.4249
usemtl lambert60.001
s off
f 1/1/1 4/2/1 3/3/1 2/4/1
f 4/5/2 6/6/2 5/7/2 3/8/2
f 6/9/3 8/10/3 7/11/3 5/12/3
f 8/13/4 1/14/4 2/15/4 7/16/4
f 2/17/5 3/18/5 5/19/5 7/20/5
f 8/21/6 6/22/6 4/23/6 1/24/6
