# Blender v2.82 (sub 7) OBJ File: 'car.blend'
# www.blender.org
mtllib car_liscense.mtl
v -0.348078 0.770044 2.664527
v 0.343774 0.770044 2.664527
v -0.348078 1.099145 2.664527
v 0.343774 1.099145 2.664527
v -0.348078 1.099145 2.689292
v -0.348078 0.770044 2.689292
v 0.343774 0.770044 2.689292
v 0.343774 1.099145 2.689292
vt 0.794792 0.754167
vt 0.794792 0.920833
vt 0.961458 0.920833
vt 0.961458 0.754167
vt 0.000000 0.000000
vt 0.987915 0.000000
vt 0.987915 1.000000
vt -0.000000 1.000000
vt 1.000000 0.000000
vt 1.000000 1.000000
vt 1.000000 1.000000
vt 1.000000 0.000000
vt 0.000000 1.000000
vt 0.000000 0.000000
vn 0.0000 0.0000 -1.0000
vn 0.0000 0.0000 1.0000
vn 1.0000 0.0000 0.0000
vn -1.0000 0.0000 0.0000
vn 0.0000 1.0000 0.0000
vn 0.0000 -1.0000 0.0000
usemtl Material
s off
f 1/1/1 3/2/1 4/3/1 2/4/1
f 6/5/2 7/6/2 8/7/2 5/8/2
f 2/9/3 4/10/3 8/11/3 7/12/3
f 3/13/4 1/14/4 6/5/4 5/8/4
f 4/10/5 3/13/5 5/8/5 8/11/5
f 1/14/6 2/9/6 7/12/6 6/5/6
