# Blender v2.82 (sub 7) OBJ File: 'car.blend'
# www.blender.org
mtllib car_front_bumper.mtl
v 1.164295 0.363956 -2.664426
v 1.164295 0.554256 -2.664426
v 1.164295 0.363956 -2.564293
v 1.164295 0.554256 -2.564293
v 0.722378 0.554256 -2.664426
v 0.722378 0.363956 -2.664426
v 0.722378 0.363956 -2.564296
v 0.722378 0.554256 -2.564293
v 1.256952 0.554256 -2.664426
v 1.256952 0.363956 -2.664426
v 1.256952 0.363956 -2.564293
v 1.256952 0.554256 -2.564293
v 1.164295 0.554255 -2.163182
v 1.164295 0.363956 -2.163182
v 1.256952 0.554255 -2.163182
v 1.256952 0.363956 -2.163182
v 0.000000 0.554256 -2.664426
v 0.000000 0.363956 -2.664426
v 0.000000 0.363956 -2.564293
v 0.000000 0.554256 -2.564293
v -1.164295 0.363956 -2.664426
v -1.164295 0.554256 -2.664426
v -1.164295 0.363956 -2.564293
v -1.164295 0.554256 -2.564293
v -0.722378 0.554256 -2.664426
v -0.722378 0.363956 -2.664426
v -0.722378 0.363956 -2.564296
v -0.722378 0.554256 -2.564293
v -1.256952 0.554256 -2.664426
v -1.256952 0.363956 -2.664426
v -1.256952 0.363956 -2.564293
v -1.256952 0.554256 -2.564293
v -1.164295 0.554255 -2.163182
v -1.164295 0.363956 -2.163182
v -1.256952 0.554255 -2.163182
v -1.256952 0.363956 -2.163182
vt 0.354077 0.629578
vt 0.427908 0.629578
vt 0.427908 0.661373
vt 0.354073 0.661373
vt 0.457559 0.655677
vt 0.457559 0.638947
vt 0.457559 0.638947
vt 0.457559 0.655677
vt 0.383724 0.655677
vt 0.383724 0.638947
vt 0.974038 0.640271
vt 0.974038 0.648152
vt 0.917188 0.648151
vt 0.917188 0.640271
vt 0.548601 0.629578
vt 0.548601 0.661373
vt 0.263031 0.655677
vt 0.263031 0.638947
vt 0.882410 0.648152
vt 0.882410 0.640271
vt 0.100708 0.905999
vt 0.100708 0.890876
vt 0.135826 0.890876
vt 0.193232 0.890876
vt 0.135826 0.905999
vt 0.193232 0.905999
vt 0.337350 0.629574
vt 0.354077 0.629578
vt 0.354073 0.661373
vt 0.337341 0.661370
vt 0.882410 0.640271
vt 0.882410 0.640271
vt 0.882410 0.640271
vt 0.882410 0.648152
vt 0.100708 0.890876
vt 0.100708 0.905999
vt 0.100708 0.905999
vt 0.100708 0.890876
vt 0.457559 0.638947
vt 0.457559 0.638947
vt 0.337341 0.661370
vt 0.337350 0.629574
vt 0.354077 0.629578
vt 0.354073 0.661373
vt 0.427908 0.661373
vt 0.427908 0.629578
vt 0.457559 0.655677
vt 0.457559 0.655677
vt 0.457559 0.638947
vt 0.457559 0.638947
vt 0.383724 0.638947
vt 0.383724 0.655677
vt 0.917188 0.640271
vt 0.917188 0.648151
vt 0.882410 0.640271
vt 0.882410 0.648152
vt 0.100708 0.905999
vt 0.135826 0.890876
vt 0.100708 0.890876
vt 0.135826 0.905999
vt 0.337350 0.629574
vt 0.337341 0.661370
vt 0.354073 0.661373
vt 0.354077 0.629578
vt 0.882410 0.640271
vt 0.882410 0.640271
vt 0.882410 0.640271
vt 0.882410 0.648152
vt 0.100708 0.890876
vt 0.100708 0.890876
vt 0.100708 0.905999
vt 0.100708 0.905999
vt 0.457559 0.638947
vt 0.457559 0.638947
vt 0.337350 0.629574
vt 0.337341 0.661370
vn 0.0000 0.0000 -1.0000
vn 0.0000 1.0000 0.0000
vn -0.0000 -1.0000 -0.0000
vn 0.0000 0.0000 1.0000
vn 1.0000 0.0000 0.0000
vn -1.0000 0.0000 0.0000
usemtl lambert60.001
s off
f 1/1/1 6/2/1 5/3/1 2/4/1
f 2/5/2 4/6/2 12/7/2 9/8/2
f 4/6/2 2/5/2 5/9/2 8/10/2
f 19/11/3 18/12/3 6/13/3 7/14/3
f 5/3/1 6/2/1 18/15/1 17/16/1
f 8/10/2 5/9/2 17/17/2 20/18/2
f 7/14/3 6/13/3 1/19/3 3/20/3
f 3/21/4 4/22/4 8/23/4
f 20/24/4 7/25/4 8/23/4
f 19/26/4 7/25/4 20/24/4
f 7/25/4 3/21/4 8/23/4
f 11/27/5 10/28/5 9/29/5 12/30/5
f 3/20/3 11/31/3 16/32/3 14/33/3
f 3/20/3 1/19/3 10/34/3 11/31/3
f 1/1/1 2/4/1 9/29/1 10/28/1
f 13/35/4 14/36/4 16/37/4 15/38/4
f 12/7/2 4/6/2 13/39/2 15/40/2
f 4/22/6 3/21/6 14/36/6 13/35/6
f 11/27/5 12/30/5 15/41/5 16/42/5
f 21/43/1 22/44/1 25/45/1 26/46/1
f 22/47/2 29/48/2 32/49/2 24/50/2
f 24/50/2 28/51/2 25/52/2 22/47/2
f 19/11/3 27/53/3 26/54/3 18/12/3
f 25/45/1 17/16/1 18/15/1 26/46/1
f 28/51/2 20/18/2 17/17/2 25/52/2
f 27/53/3 23/55/3 21/56/3 26/54/3
f 23/57/4 28/58/4 24/59/4
f 20/24/4 28/58/4 27/60/4
f 19/26/4 20/24/4 27/60/4
f 27/60/4 28/58/4 23/57/4
f 31/61/6 32/62/6 29/63/6 30/64/6
f 23/55/3 34/65/3 36/66/3 31/67/3
f 23/55/3 31/67/3 30/68/3 21/56/3
f 21/43/1 30/64/1 29/63/1 22/44/1
f 33/69/4 35/70/4 36/71/4 34/72/4
f 32/49/2 35/73/2 33/74/2 24/50/2
f 24/59/5 33/69/5 34/72/5 23/57/5
f 31/61/6 36/75/6 35/76/6 32/62/6
