# Blender v2.81 (sub 16) OBJ File: ''
# www.blender.org
mtllib Cartoon_Lowpoly_Car.mtl
v 0.465241 -0.013115 1.000000
v 0.627395 0.491022 1.000000
v 0.465241 -0.013115 -1.000000
v 0.627395 0.677132 -1.000000
v 0.627395 0.677132 0.500000
v 0.627395 0.763620 -0.500000
v 0.429220 1.097050 -0.138338
v 0.422947 1.085655 0.126890
v -0.465241 -0.013115 1.000000
v -0.627395 0.491022 1.000000
v -0.465241 -0.013115 -1.000000
v -0.627395 0.677132 -1.000000
v -0.627395 0.677132 0.500000
v -0.627395 0.763620 -0.500000
v -0.429220 1.097050 -0.138338
v -0.422947 1.085655 0.126890
v 0.000000 -0.013115 -1.000000
v 0.000000 0.677132 -1.000000
v 0.000000 -0.013115 1.000000
v 0.000000 0.491022 1.000000
v 0.000000 0.677132 0.500000
v 0.000000 0.763620 -0.500000
v 0.000000 1.085655 0.126890
v 0.000000 1.097050 -0.138338
vt 0.625000 0.375000
vt 0.375000 0.500000
vt 0.375000 0.375000
vt 0.250000 0.750000
vt 0.250000 0.500000
vt 0.625000 0.640861
vt 0.750000 0.607708
vt 0.750000 0.640861
vt 0.000000 0.000000
vt 0.000000 0.000000
vt 0.000000 0.000000
vt 0.000000 0.000000
vt 0.000000 0.000000
vt 0.000000 0.000000
vt 0.000000 0.000000
vt 0.000000 0.000000
vt 0.750000 0.562500
vt 0.625000 0.607708
vt 0.625000 0.562500
vt 0.750000 0.687500
vt 0.625000 0.687500
vt 0.625000 0.750000
vt 0.375000 0.750000
vt 0.625000 0.875000
vt 0.375000 0.875000
vt 0.750000 0.500000
vt 0.625000 0.500000
vt 0.375000 0.500000
vt 0.625000 0.640861
vt 0.000000 0.000000
vt 0.000000 0.000000
vt 0.000000 0.000000
vt 0.000000 0.000000
vt 0.000000 0.000000
vt 0.000000 0.000000
vt 0.000000 0.000000
vt 0.000000 0.000000
vt 0.625000 0.607708
vt 0.625000 0.562500
vt 0.625000 0.750000
vt 0.625000 0.687500
vt 0.375000 0.750000
vt 0.625000 0.500000
vt 0.750000 0.750000
vn 0.0000 0.0000 -1.0000
vn 0.0000 -1.0000 0.0000
vn 0.0000 0.9991 0.0429
vn 0.9727 -0.2285 0.0395
vn 0.9735 -0.2287 0.0000
vn 0.9809 -0.1940 -0.0168
vn 0.8779 0.4770 0.0413
vn 0.9458 -0.3042 -0.1132
vn 0.0000 0.7352 -0.6778
vn 0.0000 0.6744 0.7384
vn 0.0000 0.9372 0.3488
vn 0.0000 0.0000 1.0000
vn 0.0000 0.9854 -0.1704
vn -0.9727 -0.2285 0.0395
vn -0.9735 -0.2287 0.0000
vn -0.9809 -0.1940 -0.0168
vn -0.8779 0.4770 0.0413
vn -0.9458 -0.3042 -0.1132
usemtl None
s off
f 18/1/1 3/2/1 17/3/1
f 3/2/2 19/4/2 17/5/2
f 8/6/3 24/7/3 23/8/3
f 3/9/4 4/10/4 6/11/4
f 5/12/5 1/13/5 3/9/5
f 5/12/6 3/9/6 6/11/6
f 8/14/7 5/12/7 6/11/7
f 8/14/7 6/11/7 7/15/7
f 5/12/8 2/16/8 1/13/8
f 22/17/9 7/18/9 6/19/9
f 8/6/10 21/20/10 5/21/10
f 21/20/11 2/22/11 5/21/11
f 1/23/12 20/24/12 19/25/12
f 18/26/13 6/19/13 4/27/13
f 11/28/1 18/1/1 17/3/1
f 19/4/2 11/28/2 17/5/2
f 24/7/3 16/29/3 23/8/3
f 11/30/14 14/31/14 12/32/14
f 13/33/15 11/30/15 9/34/15
f 13/33/16 14/31/16 11/30/16
f 16/35/17 14/31/17 13/33/17
f 16/35/17 15/36/17 14/31/17
f 13/33/18 9/34/18 10/37/18
f 15/38/9 22/17/9 14/39/9
f 16/29/10 21/20/10 23/8/10
f 10/40/11 21/20/11 13/41/11
f 9/42/12 20/24/12 10/40/12
f 14/39/13 18/26/13 12/43/13
f 18/1/1 4/27/1 3/2/1
f 3/2/2 1/23/2 19/4/2
f 8/6/3 7/18/3 24/7/3
f 22/17/9 24/7/9 7/18/9
f 8/6/10 23/8/10 21/20/10
f 21/20/11 20/44/11 2/22/11
f 1/23/12 2/22/12 20/24/12
f 18/26/13 22/17/13 6/19/13
f 11/28/1 12/43/1 18/1/1
f 19/4/2 9/42/2 11/28/2
f 24/7/3 15/38/3 16/29/3
f 15/38/9 24/7/9 22/17/9
f 16/29/10 13/41/10 21/20/10
f 10/40/11 20/44/11 21/20/11
f 9/42/12 19/25/12 20/24/12
f 14/39/13 22/17/13 18/26/13
