# Blender v2.80 (sub 75) OBJ File: ''
# www.blender.org
mtllib sphere_1.mtl
o Icosphere.001
v 0.000000 -1.000000 0.000000
v 0.717837 -0.448073 0.523451
v -0.276388 -0.447220 0.850649
v -0.837763 -0.443425 -0.000069
v -0.276388 -0.447220 -0.850649
v 0.715375 -0.446018 -0.524942
v 0.245481 0.430880 0.813145
v -0.591823 0.392710 0.444622
v -0.723222 0.447174 -0.525727
v 0.276388 0.447220 -0.850649
v 0.771586 0.404051 -0.034713
v 0.000000 1.000000 0.000000
v -0.162456 -0.850654 0.499995
v 0.425323 -0.850654 0.309011
v 0.262869 -0.525738 0.809012
v 0.813138 -0.522056 0.000737
v 0.425323 -0.850654 -0.309011
v -0.525730 -0.850652 0.000000
v -0.687012 -0.525761 0.499705
v -0.162456 -0.850654 -0.499995
v -0.683412 -0.525028 -0.499520
v 0.262869 -0.525738 -0.809012
v 0.794195 -0.032271 0.262136
v 0.871860 0.000291 -0.310495
v 0.000000 -0.000118 0.999731
v 0.532312 -0.022876 0.755233
v -0.794195 -0.032271 0.262136
v -0.532312 -0.022876 0.755233
v -0.587786 0.000000 -0.809017
v -0.871860 0.000291 -0.310495
v 0.587786 0.000000 -0.809017
v 0.000000 0.000000 -1.000000
v 0.570224 0.473682 0.428416
v -0.236452 0.511628 0.776709
v -0.747143 0.482627 -0.031462
v -0.262869 0.525738 -0.809012
v 0.687428 0.525101 -0.500215
v 0.162114 0.850396 0.499775
v 0.507427 0.835325 -0.005702
v -0.412103 0.840440 0.304427
v -0.423536 0.849088 -0.309553
v 0.162456 0.850654 -0.499995
vt 0.818181 0.000000
vt 0.772726 0.078731
vt 0.863635 0.078731
vt 0.727272 0.157461
vt 0.681818 0.078731
vt 0.636363 0.157461
vt 0.090909 0.000000
vt 0.045454 0.078731
vt 0.136363 0.078731
vt 0.272727 0.000000
vt 0.227273 0.078731
vt 0.318182 0.078731
vt 0.454545 0.000000
vt 0.409090 0.078731
vt 0.500000 0.078731
vt 0.681818 0.236191
vt 0.909090 0.157461
vt 0.818181 0.157461
vt 0.863635 0.236191
vt 0.181818 0.157461
vt 0.090909 0.157461
vt 0.136363 0.236191
vt 0.363636 0.157461
vt 0.272727 0.157461
vt 0.318182 0.236191
vt 0.545454 0.157461
vt 0.454545 0.157461
vt 0.500000 0.236191
vt 0.772726 0.236191
vt 0.954545 0.236191
vt 0.227273 0.236191
vt 0.409090 0.236191
vt 0.590909 0.236191
vt 0.818181 0.314921
vt 0.727272 0.314921
vt 0.772726 0.393651
vt 1.000000 0.314921
vt 0.909091 0.314921
vt 0.954545 0.393651
vt 0.272727 0.314921
vt 0.181818 0.314921
vt 0.227273 0.393651
vt 0.454545 0.314921
vt 0.363636 0.314921
vt 0.409090 0.393651
vt 0.636363 0.314921
vt 0.545454 0.314921
vt 0.590909 0.393651
vt 0.500000 0.393651
vt 0.545454 0.472382
vt 0.318182 0.393651
vt 0.363636 0.472382
vt 0.136363 0.393651
vt 0.181818 0.472382
vt 0.090909 0.314921
vt 0.863635 0.393651
vt 0.909090 0.472382
vt 0.681818 0.393651
vt 0.727272 0.472382
vt 0.045454 0.236191
vt 0.000000 0.157461
vt 0.590909 0.078731
vt 0.636363 0.000000
vn 0.1024 -0.9435 0.3151
vn 0.7276 -0.6482 0.2244
vn -0.2680 -0.9435 0.1947
vn -0.2680 -0.9435 -0.1947
vn 0.1024 -0.9435 -0.3151
vn 0.9803 -0.0622 0.1875
vn 0.0248 -0.3300 0.9437
vn -0.9580 -0.0749 0.2766
vn -0.5785 -0.3335 -0.7444
vn 0.5426 -0.3353 -0.7702
vn 0.8767 0.1301 0.4631
vn -0.4153 -0.0462 0.9085
vn -0.9906 0.0186 0.1354
vn -0.3066 -0.1256 -0.9435
vn 0.8669 -0.0666 -0.4940
vn 0.6074 0.5493 0.5738
vn -0.6848 0.4535 0.5704
vn -0.7772 0.6238 -0.0824
vn 0.0385 0.6617 -0.7488
vn 0.8521 0.5231 -0.0180
vn 0.3017 0.9360 -0.1815
vn 0.4987 0.8043 -0.3231
vn 0.4100 0.6615 -0.6279
vn -0.1052 0.9430 -0.3158
vn -0.1893 0.7954 -0.5758
vn -0.4709 0.6637 -0.5812
vn -0.3483 0.9372 0.0197
vn -0.7406 0.6716 0.0232
vn -0.8251 0.4416 0.3526
vn -0.1257 0.9385 0.3217
vn -0.2211 0.7599 0.6113
vn 0.0408 0.6031 0.7966
vn 0.3054 0.9349 0.1808
vn 0.6525 0.6260 0.4271
vn 0.8256 0.4865 0.2858
vn 0.9494 0.2998 -0.0937
vn 0.8620 0.1253 -0.4912
vn 0.5752 0.3308 -0.7482
vn -0.0247 0.3304 -0.9435
vn -0.3035 0.1876 -0.9342
vn -0.5349 0.3306 -0.7776
vn -0.9560 0.2858 -0.0668
vn -0.9752 0.1700 0.1419
vn -0.8963 0.2786 0.3450
vn -0.6983 0.3617 0.6177
vn -0.4163 0.1947 0.8881
vn -0.0026 0.3985 0.9172
vn 0.6933 0.3585 0.6251
vn 0.8608 0.2323 0.4528
vn 0.8946 0.2821 0.3465
vn 0.3066 0.1256 -0.9435
vn 0.3035 -0.1876 -0.9342
vn 0.0247 -0.3304 -0.9435
vn -0.8677 0.0505 -0.4945
vn -0.8612 -0.1324 -0.4907
vn -0.9366 -0.2463 -0.2492
vn -0.8640 0.2162 0.4547
vn -0.8829 0.0337 0.4683
vn -0.6145 -0.1989 0.7635
vn 0.4180 0.1498 0.8960
vn 0.4099 -0.1230 0.9038
vn 0.5452 -0.2052 0.8128
vn 0.9791 0.1468 0.1411
vn 0.9907 -0.0324 0.1325
vn 0.9497 -0.2320 -0.2102
vn 0.4810 -0.6555 -0.5822
vn 0.1876 -0.7947 -0.5773
vn -0.0385 -0.6617 -0.7488
vn -0.4137 -0.6610 -0.6260
vn -0.4948 -0.7911 -0.3595
vn -0.7854 -0.6019 -0.1444
vn -0.7862 -0.6024 0.1379
vn -0.4919 -0.7939 0.3574
vn -0.4101 -0.6615 0.6279
vn 0.7292 -0.6449 -0.2289
vn 0.6465 -0.7630 0.0000
vn 0.3313 -0.9435 0.0000
vn -0.0385 -0.6617 0.7488
vn 0.1876 -0.7947 0.5773
vn 0.4779 -0.6575 0.5825
usemtl None
s off
f 1/1/1 14/2/1 13/3/1
f 2/4/2 14/5/2 16/6/2
f 1/7/3 13/8/3 18/9/3
f 1/10/4 18/11/4 20/12/4
f 1/13/5 20/14/5 17/15/5
f 2/4/6 16/6/6 23/16/6
f 3/17/7 15/18/7 25/19/7
f 4/20/8 19/21/8 27/22/8
f 5/23/9 21/24/9 29/25/9
f 6/26/10 22/27/10 31/28/10
f 2/4/11 23/16/11 26/29/11
f 3/17/12 25/19/12 28/30/12
f 4/20/13 27/22/13 30/31/13
f 5/23/14 29/25/14 32/32/14
f 6/26/15 31/28/15 24/33/15
f 7/34/16 33/35/16 38/36/16
f 8/37/17 34/38/17 40/39/17
f 9/40/18 35/41/18 41/42/18
f 10/43/19 36/44/19 42/45/19
f 11/46/20 37/47/20 39/48/20
f 39/48/21 42/49/21 12/50/21
f 39/48/22 37/47/22 42/49/22
f 37/47/23 10/43/23 42/49/23
f 42/45/24 41/51/24 12/52/24
f 42/45/25 36/44/25 41/51/25
f 36/44/26 9/40/26 41/51/26
f 41/42/27 40/53/27 12/54/27
f 41/42/28 35/41/28 40/53/28
f 35/41/29 8/55/29 40/53/29
f 40/39/30 38/56/30 12/57/30
f 40/39/31 34/38/31 38/56/31
f 34/38/32 7/34/32 38/56/32
f 38/36/33 39/58/33 12/59/33
f 38/36/34 33/35/34 39/58/34
f 33/35/35 11/46/35 39/58/35
f 24/33/36 37/47/36 11/46/36
f 24/33/37 31/28/37 37/47/37
f 31/28/38 10/43/38 37/47/38
f 32/32/39 36/44/39 10/43/39
f 32/32/40 29/25/40 36/44/40
f 29/25/41 9/40/41 36/44/41
f 30/31/42 35/41/42 9/40/42
f 30/31/43 27/22/43 35/41/43
f 27/22/44 8/55/44 35/41/44
f 28/30/45 34/38/45 8/37/45
f 28/30/46 25/19/46 34/38/46
f 25/19/47 7/34/47 34/38/47
f 26/29/48 33/35/48 7/34/48
f 26/29/49 23/16/49 33/35/49
f 23/16/50 11/46/50 33/35/50
f 31/28/51 32/32/51 10/43/51
f 31/28/52 22/27/52 32/32/52
f 22/27/53 5/23/53 32/32/53
f 29/25/54 30/31/54 9/40/54
f 29/25/55 21/24/55 30/31/55
f 21/24/56 4/20/56 30/31/56
f 27/22/57 28/60/57 8/55/57
f 27/22/58 19/21/58 28/60/58
f 19/21/59 3/61/59 28/60/59
f 25/19/60 26/29/60 7/34/60
f 25/19/61 15/18/61 26/29/61
f 15/18/62 2/4/62 26/29/62
f 23/16/63 24/33/63 11/46/63
f 23/16/64 16/6/64 24/33/64
f 16/6/65 6/26/65 24/33/65
f 17/15/66 22/27/66 6/26/66
f 17/15/67 20/14/67 22/27/67
f 20/14/68 5/23/68 22/27/68
f 20/12/69 21/24/69 5/23/69
f 20/12/70 18/11/70 21/24/70
f 18/11/71 4/20/71 21/24/71
f 18/9/72 19/21/72 4/20/72
f 18/9/73 13/8/73 19/21/73
f 13/8/74 3/61/74 19/21/74
f 16/6/75 17/62/75 6/26/75
f 16/6/76 14/5/76 17/62/76
f 14/5/77 1/63/77 17/62/77
f 13/3/78 15/18/78 3/17/78
f 13/3/79 14/2/79 15/18/79
f 14/2/80 2/4/80 15/18/80
