# Blender v2.80 (sub 75) OBJ File: ''
# www.blender.org
mtllib sphere_3.mtl
o Icosphere.003
v 0.000000 -0.773410 0.132244
v 0.778066 -0.532812 0.375823
v -0.000000 -0.167205 0.775811
v -0.736782 -0.433450 -0.013745
v -0.276388 -0.447220 -0.850649
v 0.671966 -0.447792 -0.518188
v 0.000000 0.035790 0.596515
v -0.000004 0.151557 0.459392
v -0.547611 0.366021 -0.321409
v 0.473338 0.375432 -0.585275
v 0.015649 0.473725 0.141785
v 0.000000 0.534952 0.074661
v -0.000274 -0.371456 0.767780
v 0.278034 -0.772623 0.246647
v 0.000000 -0.190453 0.784864
v 0.726434 -0.512608 -0.011588
v 0.424674 -0.850664 -0.308026
v -0.494725 -0.841678 0.012676
v -0.749379 -0.617089 0.369719
v -0.162456 -0.850654 -0.499995
v -0.660477 -0.524658 -0.496784
v 0.262869 -0.525738 -0.809012
v 0.575186 0.210050 0.299938
v 0.569848 0.187491 -0.235712
v 0.000000 -0.098301 0.732542
v 0.632355 0.214291 0.512011
v -0.575186 0.210050 0.299938
v -0.632355 0.214291 0.512011
v -0.567045 -0.011495 -0.784343
v -0.569848 0.187491 -0.235712
v 0.567045 -0.011495 -0.784343
v 0.000000 0.433805 -0.597150
v 0.000005 0.194202 0.412786
v -0.000000 0.060876 0.566547
v -0.018681 0.479721 0.134631
v -0.464314 0.453504 -0.533274
v 0.398021 0.440831 -0.342681
v 0.000034 0.347214 0.267385
v 0.009708 0.526423 0.083022
v -0.000146 0.385074 0.232495
v -0.237203 0.728099 -0.219899
v 0.120240 0.774901 -0.322927
vt 0.818181 0.000000
vt 0.772726 0.078731
vt 0.863635 0.078731
vt 0.727272 0.157461
vt 0.681818 0.078731
vt 0.636363 0.157461
vt 0.090909 0.000000
vt 0.045454 0.078731
vt 0.136363 0.078731
vt 0.272727 0.000000
vt 0.227273 0.078731
vt 0.318182 0.078731
vt 0.454545 0.000000
vt 0.409090 0.078731
vt 0.500000 0.078731
vt 0.681818 0.236191
vt 0.909090 0.157461
vt 0.818181 0.157461
vt 0.863635 0.236191
vt 0.181818 0.157461
vt 0.090909 0.157461
vt 0.136363 0.236191
vt 0.363636 0.157461
vt 0.272727 0.157461
vt 0.318182 0.236191
vt 0.545454 0.157461
vt 0.454545 0.157461
vt 0.500000 0.236191
vt 0.772726 0.236191
vt 0.954545 0.236191
vt 0.227273 0.236191
vt 0.409090 0.236191
vt 0.590909 0.236191
vt 0.818181 0.314921
vt 0.727272 0.314921
vt 0.772726 0.393651
vt 1.000000 0.314921
vt 0.909091 0.314921
vt 0.954545 0.393651
vt 0.272727 0.314921
vt 0.181818 0.314921
vt 0.227273 0.393651
vt 0.454545 0.314921
vt 0.363636 0.314921
vt 0.409090 0.393651
vt 0.636363 0.314921
vt 0.545454 0.314921
vt 0.590909 0.393651
vt 0.500000 0.393651
vt 0.545454 0.472382
vt 0.318182 0.393651
vt 0.363636 0.472382
vt 0.136363 0.393651
vt 0.181818 0.472382
vt 0.090909 0.314921
vt 0.863635 0.393651
vt 0.909090 0.472382
vt 0.681818 0.393651
vt 0.727272 0.472382
vt 0.045454 0.236191
vt 0.000000 0.157461
vt 0.590909 0.078731
vt 0.636363 0.000000
vn -0.2126 -0.8259 0.5222
vn 0.4522 -0.8855 -0.1064
vn -0.0126 -0.8451 0.5345
vn 0.1144 -0.9892 0.0915
vn -0.0432 -0.9903 0.1321
vn 0.9612 0.2508 -0.1150
vn 1.0000 0.0001 0.0001
vn -0.9750 0.2112 0.0691
vn -0.6136 -0.2980 -0.7312
vn 0.5892 -0.3128 -0.7450
vn 0.9385 0.2300 -0.2576
vn -0.0324 0.5315 0.8464
vn -0.9673 0.2528 -0.0203
vn 0.1331 0.2353 -0.9628
vn 0.9789 0.1903 -0.0740
vn 1.0000 -0.0009 -0.0007
vn -1.0000 -0.0033 -0.0027
vn -0.6507 0.3723 0.6619
vn -0.0007 0.5485 -0.8361
vn 0.6482 0.5983 0.4710
vn 0.2281 0.8015 0.5527
vn 0.6761 0.5320 0.5097
vn 0.7691 0.6355 0.0675
vn 0.0401 0.8501 0.5251
vn -0.2574 0.8115 -0.5245
vn -0.7552 0.6549 -0.0265
vn -0.2556 0.7012 0.6656
vn 0.3896 -0.6241 -0.6773
vn -0.2232 0.6792 0.6992
vn 0.9980 0.0449 0.0435
vn 0.9984 0.0412 0.0395
vn -1.0000 0.0011 0.0009
vn 0.0283 0.7160 0.6975
vn 0.7267 0.4731 0.4980
vn -0.5175 0.6104 0.5997
vn 0.6339 0.6233 0.4580
vn 0.8478 0.4971 -0.1846
vn 0.9577 0.0917 0.2726
vn 0.0988 0.8910 0.4431
vn -0.0984 0.4895 -0.8664
vn -0.9181 0.3252 -0.2267
vn -0.6473 0.3939 0.6526
vn -0.4458 0.8941 -0.0421
vn -0.1259 0.6942 0.7087
vn 0.1284 0.7570 0.6406
vn 0.1147 0.7170 0.6876
vn -1.0000 0.0001 0.0001
vn -0.1255 0.7514 0.6478
vn -0.0299 0.9995 -0.0119
vn 0.1215 0.6874 0.7160
vn 0.0802 0.4713 -0.8783
vn -0.1933 0.1608 -0.9679
vn 0.1098 0.2429 -0.9638
vn -0.9937 0.1033 -0.0426
vn -0.9874 0.1471 -0.0584
vn -0.9632 0.1916 -0.1883
vn 0.0993 0.9950 0.0069
vn -0.9492 0.1780 -0.2594
vn -0.4306 -0.0930 0.8977
vn -0.1066 0.7081 0.6980
vn 0.0591 0.4929 0.8681
vn 0.4367 -0.0782 0.8962
vn 0.4356 0.8991 -0.0422
vn 0.9770 0.2125 -0.0187
vn 0.9779 0.1930 -0.0805
vn 0.5281 -0.6244 -0.5755
vn 0.1885 -0.7950 -0.5765
vn -0.0385 -0.6617 -0.7488
vn -0.4344 -0.6576 -0.6155
vn -0.5198 -0.7909 -0.3230
vn -0.8584 -0.5115 -0.0390
vn -0.8209 -0.5041 -0.2684
vn -0.0039 -0.8477 0.5304
vn -0.4602 -0.0343 0.8872
vn 0.8019 -0.5756 -0.1599
vn 0.5931 -0.7607 0.2638
vn -0.0492 -0.9908 0.1264
vn -1.0000 0.0012 0.0032
vn 0.8651 -0.0484 0.4993
vn 0.1138 -0.6446 0.7560
usemtl None
s off
f 1/1/1 14/2/1 13/3/1
f 2/4/2 14/5/2 16/6/2
f 1/7/3 13/8/3 18/9/3
f 1/10/4 18/11/4 20/12/4
f 1/13/5 20/14/5 17/15/5
f 2/4/6 16/6/6 23/16/6
f 3/17/7 15/18/7 25/19/7
f 4/20/8 19/21/8 27/22/8
f 5/23/9 21/24/9 29/25/9
f 6/26/10 22/27/10 31/28/10
f 2/4/11 23/16/11 26/29/11
f 3/17/12 25/19/12 28/30/12
f 4/20/13 27/22/13 30/31/13
f 5/23/14 29/25/14 32/32/14
f 6/26/15 31/28/15 24/33/15
f 7/34/16 33/35/16 38/36/16
f 8/37/17 34/38/17 40/39/17
f 9/40/18 35/41/18 41/42/18
f 10/43/19 36/44/19 42/45/19
f 11/46/20 37/47/20 39/48/20
f 39/48/21 42/49/21 12/50/21
f 39/48/22 37/47/22 42/49/22
f 37/47/23 10/43/23 42/49/23
f 42/45/24 41/51/24 12/52/24
f 42/45/25 36/44/25 41/51/25
f 36/44/26 9/40/26 41/51/26
f 41/42/27 40/53/27 12/54/27
f 41/42/28 35/41/28 40/53/28
f 35/41/29 8/55/29 40/53/29
f 40/39/30 38/56/30 12/57/30
f 40/39/31 34/38/31 38/56/31
f 34/38/32 7/34/32 38/56/32
f 38/36/33 39/58/33 12/59/33
f 38/36/34 33/35/34 39/58/34
f 33/35/35 11/46/35 39/58/35
f 24/33/36 37/47/36 11/46/36
f 24/33/37 31/28/37 37/47/37
f 31/28/38 10/43/38 37/47/38
f 32/32/39 36/44/39 10/43/39
f 32/32/40 29/25/40 36/44/40
f 29/25/41 9/40/41 36/44/41
f 30/31/42 35/41/42 9/40/42
f 30/31/43 27/22/43 35/41/43
f 27/22/44 8/55/44 35/41/44
f 28/30/45 34/38/45 8/37/45
f 28/30/46 25/19/46 34/38/46
f 25/19/47 7/34/47 34/38/47
f 26/29/48 33/35/48 7/34/48
f 26/29/49 23/16/49 33/35/49
f 23/16/50 11/46/50 33/35/50
f 31/28/51 32/32/51 10/43/51
f 31/28/52 22/27/52 32/32/52
f 22/27/53 5/23/53 32/32/53
f 29/25/54 30/31/54 9/40/54
f 29/25/55 21/24/55 30/31/55
f 21/24/56 4/20/56 30/31/56
f 27/22/57 28/60/57 8/55/57
f 27/22/58 19/21/58 28/60/58
f 19/21/59 3/61/59 28/60/59
f 25/19/60 26/29/60 7/34/60
f 25/19/61 15/18/61 26/29/61
f 15/18/62 2/4/62 26/29/62
f 23/16/63 24/33/63 11/46/63
f 23/16/64 16/6/64 24/33/64
f 16/6/65 6/26/65 24/33/65
f 17/15/66 22/27/66 6/26/66
f 17/15/67 20/14/67 22/27/67
f 20/14/68 5/23/68 22/27/68
f 20/12/69 21/24/69 5/23/69
f 20/12/70 18/11/70 21/24/70
f 18/11/71 4/20/71 21/24/71
f 18/9/72 19/21/72 4/20/72
f 18/9/73 13/8/73 19/21/73
f 13/8/74 3/61/74 19/21/74
f 16/6/75 17/62/75 6/26/75
f 16/6/76 14/5/76 17/62/76
f 14/5/77 1/63/77 17/62/77
f 13/3/78 15/18/78 3/17/78
f 13/3/79 14/2/79 15/18/79
f 14/2/80 2/4/80 15/18/80
