# Blender v2.82 (sub 7) OBJ File: 'car.blend'
# www.blender.org
mtllib taxi.mtl
v 0.493644 2.482224 -0.337899
v 0.493644 2.482224 -0.573695
v 0.493644 2.883945 -0.573695
v 0.493644 2.883945 -0.337899
v -0.493644 2.883945 -0.573695
v -0.493644 2.883945 -0.337899
v -0.493644 2.482224 -0.573695
v -0.493644 2.482224 -0.337899
v 0.000000 0.545646 -2.647846
v 0.000000 0.358160 -2.647846
v 0.000000 0.550724 2.647846
v 0.000000 0.358160 2.647846
v 0.000000 0.545646 -2.549195
v -1.147077 0.550450 -1.204980
v -1.147077 0.358160 -1.201823
v -1.147075 2.482215 -1.022537
v -1.147092 2.482148 1.466749
v -1.147077 0.358160 -2.647846
v -1.147077 0.545646 -2.647846
v -1.147077 0.550724 2.647846
v -1.147077 0.358160 2.647846
v -1.147077 1.516652 0.139407
v -1.147077 2.388702 0.147300
v -1.147077 2.388702 -0.899498
v -1.147077 1.516652 -0.978102
v -1.147061 1.412867 1.573785
v -1.037255 1.514158 -1.121108
v -1.037261 2.388717 -1.033424
v -1.147077 0.358160 -2.549195
v -1.147077 1.412792 -2.549195
v -1.147078 1.412799 -1.128308
v -1.147077 0.545646 -2.549195
v -1.147077 1.412791 2.647846
v -1.147077 1.516652 1.422939
v -1.147077 1.516652 0.330511
v -1.147077 2.388702 0.323299
v -1.147077 2.388702 1.344335
v -1.037283 1.516526 1.565795
v -1.037232 2.333972 1.474739
v 0.000000 0.979219 -2.549195
v -1.147077 0.979219 -2.549195
v -1.147077 0.981758 2.647846
v -1.147077 1.196005 -2.549195
v -1.147077 1.197275 2.647846
v -0.573538 1.197274 2.647846
v -0.573538 0.981757 2.647846
v -1.147077 1.196005 2.436578
v -1.147077 0.979218 2.436578
v -1.147077 1.196640 -2.308222
v -1.147077 0.980488 -2.308222
v -0.573538 1.196005 -2.549195
v -0.573538 0.979219 -2.549195
v -1.147077 0.358160 -2.035514
v -1.147077 0.547586 -2.028036
v -1.147077 0.745007 -1.371797
v -1.147077 0.745006 -1.882090
v -1.147077 0.358160 2.117000
v -1.147077 0.545656 2.114013
v -1.147077 0.358160 1.303379
v -1.147077 0.541683 1.298772
v -1.147077 0.747280 1.970442
v -1.147077 0.833750 1.696406
v -1.147077 0.747193 1.424902
v -0.860738 0.358160 1.303379
v -0.860738 0.541683 1.298772
v -0.860738 0.545656 2.114013
v -0.860738 0.358160 2.117000
v -0.860738 0.747280 1.970442
v -0.860738 0.833750 1.696406
v -0.860738 0.747193 1.424902
v -0.860738 0.358160 -1.201823
v -0.860738 0.550450 -1.204980
v -0.860738 0.358160 -2.035514
v -0.860738 0.547586 -2.028036
v -0.860738 0.745007 -1.371797
v -0.860738 0.745006 -1.882090
v -0.860738 0.833817 -1.621740
v -1.147077 0.833817 -1.621740
v 1.147077 0.550450 -1.204980
v 1.147077 0.358160 -1.201823
v 1.147075 2.482215 -1.022537
v 1.147092 2.482149 1.466749
v 1.147077 0.358160 -2.647846
v 1.147077 0.545646 -2.647846
v 1.147077 0.550724 2.647846
v 1.147077 0.358160 2.647846
v 1.147077 1.516652 0.139407
v 1.147077 2.388702 0.147300
v 1.147077 2.388702 -0.899498
v 1.147077 1.516652 -0.978102
v 1.147061 1.412867 1.573785
v 1.037255 1.514158 -1.121108
v 1.037261 2.388717 -1.033424
v 1.147077 0.358160 -2.549195
v 1.147077 1.412792 -2.549195
v 1.147078 1.412799 -1.128308
v 1.147077 0.545646 -2.549195
v 1.147077 1.412791 2.647846
v 1.147077 1.516652 1.422939
v 1.147077 1.516652 0.330511
v 1.147077 2.388702 0.323299
v 1.147077 2.388702 1.344335
v 1.037283 1.516526 1.565795
v 1.037232 2.333972 1.474739
v 1.147077 0.979219 -2.549195
v 1.147077 0.981758 2.647846
v 1.147077 1.196005 -2.549195
v 1.147077 1.197275 2.647846
v 0.573538 1.197274 2.647846
v 0.573538 0.981757 2.647846
v 1.147077 1.196005 2.436578
v 1.147077 0.979218 2.436578
v 1.147077 1.196640 -2.308222
v 1.147077 0.980488 -2.308222
v 0.573538 1.196005 -2.549195
v 0.573538 0.979219 -2.549195
v 1.147077 0.358160 -2.035514
v 1.147077 0.547586 -2.028036
v 1.147077 0.745007 -1.371797
v 1.147077 0.745006 -1.882090
v 1.147077 0.358160 2.117000
v 1.147077 0.545656 2.114013
v 1.147077 0.358160 1.303379
v 1.147077 0.541683 1.298772
v 1.147077 0.747280 1.970442
v 1.147077 0.833750 1.696406
v 1.147077 0.747193 1.424902
v 0.860738 0.358160 1.303379
v 0.860738 0.541683 1.298772
v 0.860738 0.545656 2.114013
v 0.860738 0.358160 2.117000
v 0.860738 0.747280 1.970442
v 0.860738 0.833750 1.696406
v 0.860738 0.747193 1.424902
v 0.860738 0.358160 -1.201823
v 0.860738 0.550450 -1.204980
v 0.860738 0.358160 -2.035514
v 0.860738 0.547586 -2.028036
v 0.860738 0.745007 -1.371797
v 0.860738 0.745006 -1.882090
v 0.860738 0.833817 -1.621740
v 1.147077 0.833817 -1.621740
vt 0.773406 0.920985
vt 0.781477 0.915705
vt 0.781477 0.920985
vt 0.773406 0.920985
vt 0.781477 0.915705
vt 0.773406 0.915705
vt 0.019170 0.048725
vt 0.208558 0.017770
vt 0.019170 0.017770
vt 0.019170 0.048725
vt 0.208558 0.017770
vt 0.208558 0.048725
vt 0.106603 0.804395
vt 0.192270 0.961832
vt 0.106604 0.964095
vt 0.066892 0.964095
vt 0.066892 0.804395
vt 0.066892 0.804395
vt 0.045780 0.089430
vt 0.029008 0.071298
vt 0.045780 0.089430
vt 0.192270 0.806746
vt 0.106604 0.964095
vt 0.106603 0.804395
vt 0.247765 0.021629
vt 0.342459 0.088772
vt 0.247765 0.088772
vt 0.939078 0.202413
vt 0.527952 0.202413
vt 0.939078 0.202413
vt 0.215272 0.071311
vt 0.045780 0.089430
vt 0.029008 0.071298
vt 0.920566 1.655894
vt 0.983501 1.727930
vt 0.920566 1.727930
vt 0.786148 0.898285
vt 0.786682 0.898052
vt 0.786930 0.896958
vt 0.983501 1.489395
vt 0.920566 1.655894
vt 0.920566 1.489395
vt 0.786930 0.896958
vt 0.786924 0.897505
vt 0.786682 0.898052
vt 0.457541 0.495125
vt 0.465729 0.590326
vt 0.457541 0.495125
vt 0.983501 1.727930
vt 0.920566 1.727930
vt 0.983501 1.489395
vt 0.983501 1.655894
vt 0.437153 0.021629
vt 0.437153 0.088772
vt 0.300281 0.955307
vt 0.319939 0.940375
vt 0.477114 0.940375
vt 0.787389 0.079488
vt 0.624353 0.013271
vt 0.787374 0.013168
vt 0.256125 0.380975
vt 0.433575 0.380975
vt 0.256125 0.380975
vt 0.167698 0.938258
vt 0.170016 0.938258
vt 0.168271 0.937214
vt 0.066892 0.804395
vt 0.066892 0.964095
vt 0.066892 0.804395
vt 0.781649 0.898175
vt 0.789686 0.889175
vt 0.781647 0.889175
vt 0.781469 0.910676
vt 0.773414 0.910676
vt 0.781679 0.901154
vt 0.789750 0.895953
vt 0.781679 0.895953
vt 0.789913 0.892923
vt 0.797969 0.887522
vt 0.789906 0.887522
vt 0.789684 0.880252
vt 0.781649 0.880252
vt 0.773460 0.903715
vt 0.781516 0.898498
vt 0.773468 0.898498
vt 0.773460 0.908744
vt 0.781523 0.903715
vt 0.797968 0.882566
vt 0.789906 0.882566
vt 0.319939 0.940375
vt 0.307389 0.795168
vt 0.300281 0.955307
vt 0.019170 0.048725
vt 0.019170 0.017770
vt 0.019170 0.048725
vt 0.106603 0.804395
vt 0.192270 0.961832
vt 0.192270 0.807514
vt 0.045780 0.089430
vt 0.029008 0.071298
vt 0.215272 0.071311
vt 0.106604 0.964095
vt 0.192270 0.806746
vt 0.106603 0.804395
vt 0.989300 0.079597
vt 0.826321 0.013168
vt 0.989344 0.013271
vt 0.778164 0.673112
vt 0.734407 0.686593
vt 0.714713 0.778585
vt 0.342459 0.088772
vt 0.437153 0.021629
vt 0.215272 0.071311
vt 0.029008 0.071298
vt 0.163038 0.672771
vt 0.095021 0.709630
vt 0.139755 0.641984
vt 0.215272 0.071311
vt 0.199732 0.089441
vt 0.983501 1.727930
vt 0.920566 1.655894
vt 0.920566 1.727930
vt 0.983501 1.489395
vt 0.920566 1.655894
vt 0.983501 1.655894
vt 0.710525 0.595197
vt 0.710525 0.569413
vt 0.805219 0.569413
vt 0.983501 1.727930
vt 0.778229 0.896958
vt 0.779584 0.898044
vt 0.779949 0.896958
vt 0.983501 1.489395
vt 0.983501 1.655894
vt 0.437153 0.088772
vt 0.856751 0.087277
vt 0.790426 0.126209
vt 0.790426 0.087276
vt 0.781687 0.906194
vt 0.789750 0.901154
vt 0.773460 0.903715
vt 0.781516 0.898498
vt 0.781523 0.903715
vt 0.773406 0.915705
vt 0.781469 0.910676
vt 0.781679 0.901154
vt 0.789750 0.895953
vt 0.789750 0.901154
vt 0.789913 0.892923
vt 0.797969 0.887522
vt 0.797961 0.892923
vt 0.773460 0.908744
vt 0.781523 0.908744
vt 0.246751 0.444815
vt 0.436137 0.461104
vt 0.246751 0.461104
vt 0.789906 0.887522
vt 0.797968 0.882566
vt 0.826306 0.079488
vt 0.781649 0.898175
vt 0.789686 0.889175
vt 0.789684 0.898175
vt 0.781466 0.889673
vt 0.773419 0.880298
vt 0.781464 0.880163
vt 0.342459 0.122343
vt 0.437153 0.155914
vt 0.342459 0.122343
vt 0.208558 0.048725
vt 0.019170 0.017770
vt 0.192270 0.807514
vt 0.066892 0.964095
vt 0.199732 0.089441
vt 0.437214 0.409780
vt 0.437214 0.175172
vt 0.437214 0.409780
vt 0.192270 0.960875
vt 0.773419 0.880298
vt 0.781466 0.889673
vt 0.781464 0.880163
vt 0.199732 0.089441
vt 0.983501 1.655894
vt 0.920566 1.489395
vt 0.019170 0.017770
vt 0.106604 0.964095
vt 0.773419 0.898949
vt 0.773417 0.889808
vt 0.192270 0.960875
vt 0.920566 1.489395
vt 0.773419 0.898949
vt 0.773417 0.889808
vt 0.627437 0.126201
vt 0.627437 0.087284
vt 0.778531 0.898043
vt 0.778229 0.896958
vt 0.779584 0.898044
vt 0.920566 1.727930
vt 0.920566 1.489395
vt 0.781647 0.889175
vt 0.789684 0.880252
vt 0.781687 0.906194
vt 0.789742 0.906194
vt 0.781477 0.920985
vt 0.527952 0.202413
vt 0.786923 0.897504
vt 0.785257 0.896958
vt 0.785247 0.897493
vt 0.785468 0.898060
vt 0.786022 0.898300
vt 0.785468 0.898060
vt 0.785257 0.896958
vt 0.785247 0.897493
vt 0.465728 0.495125
vt 0.465728 0.495125
vt 0.283419 0.778585
vt 0.475854 0.785765
vt 0.307389 0.795168
vt 0.505215 0.940375
vt 0.712788 0.955307
vt 0.506366 0.785765
vt 0.624395 0.079597
vt 0.433575 0.380975
vt 0.168077 0.937181
vt 0.167698 0.937181
vt 0.167699 0.939519
vt 0.167737 0.937180
vt 0.170016 0.937181
vt 0.170016 0.938262
vt 0.169224 0.937181
vt 0.170016 0.938279
vt 0.169304 0.937133
vt 0.168076 0.939519
vt 0.170016 0.937181
vt 0.169198 0.938262
vt 0.170016 0.938262
vt 0.167699 0.939519
vt 0.167698 0.937181
vt 0.169897 0.937133
vt 0.170016 0.938258
vt 0.169897 0.937133
vt 0.066892 0.964095
vt 0.789684 0.898175
vt 0.797961 0.892923
vt 0.781523 0.908744
vt 0.475854 0.785765
vt 0.283419 0.778585
vt 0.712788 0.955307
vt 0.477114 0.940375
vt 0.693130 0.940375
vt 0.505215 0.940375
vt 0.506366 0.785765
vt 0.139755 0.641984
vt 0.138561 0.610201
vt 0.056546 0.641675
vt 0.056546 0.610201
vt 0.040796 0.610201
vt 0.040796 0.641674
vt 0.056546 0.709360
vt 0.095021 0.709630
vt 0.163038 0.672771
vt 0.204598 0.686625
vt 0.095020 0.744074
vt 0.056546 0.743973
vt 0.056546 0.778585
vt 0.244509 0.672768
vt 0.271165 0.642442
vt 0.670915 0.640986
vt 0.690743 0.785765
vt 0.691055 0.673081
vt 0.671651 0.610258
vt 0.271670 0.610201
vt 0.886313 0.778585
vt 0.852582 0.743973
vt 0.886313 0.744175
vt 0.852580 0.709458
vt 0.886313 0.709766
vt 0.886313 0.642485
vt 0.886313 0.610201
vt 0.801572 0.610251
vt 0.801089 0.641644
vt 0.199732 0.089441
vt 0.271165 0.642442
vt 0.271670 0.610201
vt 0.671651 0.610258
vt 0.670916 0.641015
vt 0.244509 0.672768
vt 0.691055 0.673081
vt 0.204598 0.686625
vt 0.734407 0.686593
vt 0.714713 0.778585
vt 0.690743 0.785765
vt 0.801096 0.641629
vt 0.801572 0.610251
vt 0.886313 0.642485
vt 0.886313 0.610201
vt 0.886313 0.709766
vt 0.852580 0.709458
vt 0.778164 0.673112
vt 0.852582 0.743973
vt 0.886313 0.744175
vt 0.886313 0.778585
vt 0.693130 0.940375
vt 0.056546 0.778585
vt 0.095020 0.744074
vt 0.056546 0.743973
vt 0.056546 0.709360
vt 0.056546 0.641675
vt 0.040796 0.641674
vt 0.040796 0.610201
vt 0.056546 0.610201
vt 0.138561 0.610201
vt 0.710525 0.458835
vt 0.893840 0.458835
vt 0.805219 0.525559
vt 0.710525 0.458835
vt 0.805219 0.525559
vt 0.710525 0.525559
vt 0.805219 0.569413
vt 0.710525 0.569413
vt 0.710525 0.595197
vt 0.710525 0.525559
vt 0.778244 0.897511
vt 0.778531 0.898043
vt 0.779061 0.898283
vt 0.779942 0.897519
vt 0.856751 0.126208
vt 0.789742 0.906194
vt 0.773468 0.898498
vt 0.773414 0.910676
vt 0.781679 0.895953
vt 0.436137 0.461104
vt 0.436137 0.444815
vt 0.436137 0.444815
vt 0.789906 0.882566
vt 0.437153 0.122343
vt 0.437153 0.155914
vt 0.437153 0.122343
vt 0.437214 0.175172
vt 0.781464 0.898815
vt 0.781464 0.898815
vt 0.779061 0.898283
vt 0.778244 0.897511
vt 0.779949 0.896958
vt 0.779942 0.897519
vt 0.781649 0.880252
vn 0.0000 -0.0164 -0.9999
vn 0.9995 -0.0005 -0.0300
vn 0.9938 -0.0018 -0.1113
vn -0.9995 -0.0005 -0.0300
vn 0.0000 0.0000 -1.0000
vn -0.0000 -0.0000 1.0000
vn -1.0000 0.0000 0.0000
vn -0.0234 0.1093 0.9937
vn -0.0159 0.1007 0.9948
vn 0.0159 0.1007 0.9948
vn 0.0028 0.0957 -0.9954
vn -0.0099 0.0800 -0.9967
vn -0.0015 0.0822 -0.9966
vn -1.0000 -0.0001 -0.0000
vn -0.0000 1.0000 0.0000
vn -0.0136 0.0848 0.9963
vn 0.0204 0.0581 0.9981
vn 1.0000 0.0000 0.0000
vn 0.0000 -1.0000 -0.0000
vn 0.0000 1.0000 0.0001
vn -0.0001 0.1102 -0.9939
vn 0.0010 0.1030 -0.9947
vn 0.0000 -0.9537 -0.3009
vn 0.0000 -0.6509 -0.7592
vn 0.0000 -0.0394 0.9992
vn 0.0000 -0.5231 0.8523
vn 0.0000 -0.9528 0.3037
vn 0.0000 -0.5800 -0.8146
vn 0.0000 -0.0159 -0.9999
vn 0.0000 0.0251 0.9997
vn -0.0204 0.0581 0.9981
vn -0.0051 0.1091 -0.9940
vn 1.0000 -0.0001 -0.0000
vn 1.0000 0.0000 0.0001
vn 0.0051 0.1091 -0.9940
vn 0.0099 0.0800 -0.9967
vn 0.0136 0.0848 0.9963
vn 0.0184 0.0830 0.9964
vn 0.0000 -0.5945 0.8041
vn -0.0000 -0.9464 0.3229
vn 0.0000 -0.9423 -0.3348
vn -0.9938 -0.0018 -0.1113
vn -1.0000 -0.0001 -0.0001
vn 1.0000 -0.0001 -0.0001
vn -1.0000 0.0000 0.0001
usemtl lambert54.001
s 1
f 135/1/1 79/2/2 80/3/3
f 71/4/1 14/5/4 72/6/1
f 19/7/5 10/8/5 18/9/5
f 20/10/6 12/11/6 11/12/6
f 22/13/7 24/14/7 25/15/7
f 38/16/8 104/17/9 39/18/10
f 92/19/11 31/20/12 27/21/13
f 37/22/14 35/23/7 34/24/7
f 13/25/5 52/26/5 40/27/5
f 82/28/15 16/29/15 17/30/15
f 26/31/16 39/32/10 17/33/17
f 43/34/7 50/35/7 49/36/7
f 133/37/18 132/38/18 131/39/18
f 45/40/6 42/41/6 46/42/6
f 67/43/7 66/44/7 68/45/7
f 29/46/19 10/47/19 94/48/19
f 42/41/7 47/49/7 48/50/7
f 43/34/5 52/51/5 41/52/5
f 32/53/5 41/54/5 52/26/5
f 16/55/7 24/56/7 23/57/7
f 4/58/6 8/59/6 1/60/6
f 98/61/20 26/62/20 33/63/20
f 12/64/19 21/65/19 67/66/19
f 93/67/21 27/68/13 28/69/22
f 68/70/23 62/71/23 69/72/23
f 72/6/24 55/73/24 75/74/24
f 74/75/25 53/76/25 73/77/25
f 70/78/26 60/79/26 65/80/26
f 69/72/27 63/81/27 70/82/27
f 66/83/28 61/84/28 68/85/28
f 67/86/29 58/87/29 66/83/29
f 65/80/30 59/88/30 64/89/30
f 89/90/18 90/91/18 81/92/18
f 10/8/5 84/93/5 83/94/5
f 12/11/6 85/95/6 11/12/6
f 87/96/18 89/97/18 88/98/18
f 17/33/17 104/99/9 82/100/31
f 16/101/32 27/21/13 31/20/12
f 100/102/18 102/103/33 99/104/18
f 5/105/5 2/106/5 7/107/5
f 125/108/18 126/109/18 91/110/34
f 13/25/5 116/111/5 97/112/5
f 92/19/11 81/113/35 96/114/36
f 56/115/7 50/116/7 54/117/7
f 91/118/37 104/99/9 103/119/38
f 114/120/18 107/121/18 113/122/18
f 109/123/6 106/124/6 108/125/6
f 33/126/6 44/127/6 45/128/6
f 106/124/18 111/129/18 108/125/18
f 137/130/18 139/131/18 135/132/18
f 116/133/5 107/121/5 105/134/5
f 97/112/5 116/111/5 105/135/5
f 7/136/7 6/137/7 5/138/7
f 76/139/39 54/140/39 74/75/39
f 130/141/28 125/142/28 122/143/28
f 136/144/24 119/145/24 79/2/24
f 138/146/25 117/147/25 118/148/25
f 134/149/26 124/150/26 127/151/26
f 131/152/29 122/143/29 121/153/29
f 9/154/15 32/155/15 13/156/15
f 129/157/30 123/158/30 124/150/30
f 3/159/18 1/60/18 2/106/18
f 132/160/23 126/161/23 125/162/23
f 142/163/19 140/164/40 120/165/40
f 51/166/5 95/167/5 115/168/5
f 19/7/5 9/169/5 10/8/5
f 20/10/6 21/170/6 12/11/6
f 22/13/7 23/171/7 24/14/7
f 38/16/8 103/172/38 104/17/9
f 81/113/35 28/173/22 16/101/32
f 96/174/15 30/175/15 31/176/15
f 37/22/14 36/177/14 35/23/7
f 76/178/40 78/179/19 56/180/40
f 13/25/5 32/53/5 52/26/5
f 26/31/16 38/181/8 39/32/10
f 43/34/7 41/52/7 50/35/7
f 45/40/6 44/182/6 42/41/6
f 42/41/7 44/182/7 47/49/7
f 43/34/5 51/183/5 52/51/5
f 10/8/5 9/169/5 84/93/5
f 12/11/6 86/184/6 85/95/6
f 87/96/18 90/185/18 89/97/18
f 75/186/41 78/179/19 77/187/19
f 100/102/18 101/188/33 102/103/33
f 91/118/37 38/181/8 26/31/16
f 13/25/5 40/27/5 116/111/5
f 91/118/37 82/100/31 104/99/9
f 114/120/18 105/134/18 107/121/18
f 109/123/6 110/189/6 106/124/6
f 142/163/19 139/190/41 141/191/19
f 5/138/15 4/192/15 3/193/15
f 76/194/7 73/195/7 75/196/7
f 106/124/18 112/197/18 111/129/18
f 116/133/5 115/198/5 107/121/5
f 133/199/27 127/200/27 126/161/27
f 140/201/39 118/148/39 120/202/39
f 135/1/1 136/144/1 79/2/2
f 71/4/1 15/203/42 14/5/4
f 92/19/11 96/114/36 31/20/12
f 82/28/15 81/204/15 16/29/15
f 132/38/18 130/205/18 131/39/18
f 131/39/18 128/206/18 133/37/18
f 128/206/18 129/207/18 134/208/18
f 133/37/18 128/206/18 134/208/18
f 68/45/7 69/209/7 67/43/7
f 69/209/7 70/210/7 64/211/7
f 70/210/7 65/212/7 64/211/7
f 64/211/7 67/43/7 69/209/7
f 18/213/19 10/47/19 29/46/19
f 10/47/19 83/214/19 94/48/19
f 31/215/7 22/216/7 25/217/7
f 31/215/7 25/217/7 16/55/7
f 25/217/7 24/56/7 16/55/7
f 36/218/14 17/219/43 23/57/7
f 17/219/43 16/55/7 23/57/7
f 23/57/7 35/220/7 36/218/14
f 4/58/6 6/221/6 8/59/6
f 98/61/20 91/222/20 26/62/20
f 135/223/19 80/224/19 123/225/19
f 135/223/19 123/225/19 128/226/19
f 94/227/19 117/228/19 137/229/19
f 135/223/19 128/226/19 71/230/19
f 128/226/19 131/231/19 12/64/19
f 71/230/19 128/226/19 64/232/19
f 29/233/19 94/227/19 73/234/19
f 94/227/19 137/229/19 73/234/19
f 137/229/19 135/223/19 71/230/19
f 73/234/19 53/235/19 29/233/19
f 59/236/19 15/237/19 71/230/19
f 64/232/19 59/236/19 71/230/19
f 71/230/19 73/234/19 137/229/19
f 131/231/19 121/238/19 86/239/19
f 64/232/19 128/226/19 12/64/19
f 67/66/19 64/232/19 12/64/19
f 131/231/19 86/239/19 12/64/19
f 21/65/19 57/240/19 67/66/19
f 93/67/21 92/241/11 27/68/13
f 68/70/23 61/242/23 62/71/23
f 72/6/24 14/5/24 55/73/24
f 74/75/25 54/140/25 53/76/25
f 70/78/26 63/243/26 60/79/26
f 69/72/27 62/71/27 63/81/27
f 66/83/28 58/87/28 61/84/28
f 67/86/29 57/244/29 58/87/29
f 65/80/30 60/79/30 59/88/30
f 90/91/18 87/245/18 96/246/18
f 81/92/18 82/247/44 88/248/18
f 82/247/44 102/249/33 101/250/33
f 101/250/33 100/251/18 88/248/18
f 82/247/44 101/250/33 88/248/18
f 90/91/18 96/246/18 81/92/18
f 88/248/18 89/90/18 81/92/18
f 17/33/17 39/32/10 104/99/9
f 16/101/32 28/173/22 27/21/13
f 5/105/5 3/159/5 2/106/5
f 118/252/18 117/253/18 97/254/18
f 117/253/18 94/255/18 97/254/18
f 94/255/18 83/256/18 84/257/18
f 97/254/18 105/258/18 114/259/18
f 94/255/18 84/257/18 97/254/18
f 120/260/18 118/252/18 114/259/18
f 118/252/18 97/254/18 114/259/18
f 142/261/18 120/260/18 113/262/18
f 120/260/18 114/259/18 113/262/18
f 113/262/18 107/263/18 95/264/18
f 119/265/18 142/261/18 96/246/18
f 142/261/18 113/262/18 96/246/18
f 113/262/18 95/264/18 96/246/18
f 87/245/18 88/248/18 100/251/18
f 96/246/18 87/245/18 79/266/2
f 119/265/18 96/246/18 79/266/2
f 87/245/18 100/251/18 124/267/18
f 100/251/18 99/268/18 127/269/18
f 87/245/18 124/267/18 123/270/18
f 123/270/18 80/271/3 87/245/18
f 80/271/3 79/266/2 87/245/18
f 124/267/18 100/251/18 127/269/18
f 99/268/18 102/249/33 82/247/44
f 91/110/34 98/272/18 111/273/18
f 98/272/18 108/274/18 111/273/18
f 99/268/18 82/247/44 91/110/34
f 127/269/18 99/268/18 91/110/34
f 126/109/18 127/269/18 91/110/34
f 91/110/34 111/273/18 125/108/18
f 111/273/18 112/275/18 125/108/18
f 112/275/18 106/276/18 85/277/18
f 85/277/18 86/278/18 121/279/18
f 85/277/18 121/279/18 122/280/18
f 112/275/18 85/277/18 122/280/18
f 125/108/18 112/275/18 122/280/18
f 92/19/11 93/281/21 81/113/35
f 14/282/4 15/283/42 22/216/7
f 15/283/42 59/284/7 22/216/7
f 59/284/7 60/285/7 22/216/7
f 55/286/7 14/282/4 31/215/7
f 22/216/7 60/285/7 35/220/7
f 60/285/7 63/287/7 35/220/7
f 78/288/7 55/286/7 31/215/7
f 31/215/7 14/282/4 22/216/7
f 63/287/7 62/289/7 26/290/45
f 35/220/7 63/287/7 34/291/7
f 58/292/7 57/293/7 20/294/7
f 57/293/7 21/295/7 20/294/7
f 20/294/7 42/296/7 48/297/7
f 61/298/7 58/292/7 48/297/7
f 58/292/7 20/294/7 48/297/7
f 62/289/7 61/298/7 26/290/45
f 61/298/7 48/297/7 47/299/7
f 47/299/7 44/300/7 33/301/7
f 61/298/7 47/299/7 26/290/45
f 47/299/7 33/301/7 26/290/45
f 17/219/43 36/218/14 37/302/14
f 17/219/43 37/302/14 34/291/7
f 63/287/7 26/290/45 34/291/7
f 26/290/45 17/219/43 34/291/7
f 35/220/7 23/57/7 22/216/7
f 31/215/7 30/303/7 49/304/7
f 30/303/7 43/305/7 49/304/7
f 56/115/7 78/288/7 49/304/7
f 78/288/7 31/215/7 49/304/7
f 49/304/7 50/116/7 56/115/7
f 50/116/7 41/306/7 32/307/7
f 32/307/7 19/308/7 18/309/7
f 29/310/7 53/311/7 32/307/7
f 53/311/7 54/117/7 32/307/7
f 32/307/7 18/309/7 29/310/7
f 50/116/7 32/307/7 54/117/7
f 20/312/6 11/313/6 46/314/6
f 11/313/6 85/315/6 110/316/6
f 85/315/6 106/317/6 110/316/6
f 109/318/6 108/319/6 98/320/6
f 11/313/6 110/316/6 109/318/6
f 46/314/6 11/313/6 45/128/6
f 109/318/6 98/320/6 45/128/6
f 98/320/6 33/126/6 45/128/6
f 11/313/6 109/318/6 45/128/6
f 46/314/6 42/321/6 20/312/6
f 138/322/18 140/323/18 137/130/18
f 140/323/18 141/324/18 139/131/18
f 137/130/18 140/323/18 139/131/18
f 139/131/18 136/325/18 135/132/18
f 7/136/7 8/326/7 6/137/7
f 76/139/39 56/327/39 54/140/39
f 130/141/28 132/328/28 125/142/28
f 136/144/24 139/329/24 119/145/24
f 138/146/25 137/330/25 117/147/25
f 134/149/26 129/157/26 124/150/26
f 131/152/29 130/141/29 122/143/29
f 97/331/15 84/332/15 9/154/15
f 9/154/15 19/333/15 32/155/15
f 13/156/15 97/331/15 9/154/15
f 129/157/30 128/334/30 123/158/30
f 3/159/18 4/58/18 1/60/18
f 132/160/23 133/199/23 126/161/23
f 142/163/19 141/191/19 140/164/40
f 116/111/5 40/27/5 115/168/5
f 40/27/5 52/26/5 51/166/5
f 51/166/5 43/335/5 30/336/5
f 40/27/5 51/166/5 115/168/5
f 95/167/5 107/337/5 115/168/5
f 51/166/5 30/336/5 95/167/5
f 81/113/35 93/281/21 28/173/22
f 96/174/15 95/338/15 30/175/15
f 76/178/40 77/187/19 78/179/19
f 75/186/41 55/339/41 78/179/19
f 91/118/37 103/119/38 38/181/8
f 142/163/19 119/340/41 139/190/41
f 5/138/15 6/137/15 4/192/15
f 77/341/7 76/194/7 75/196/7
f 76/194/7 74/342/7 73/195/7
f 73/195/7 71/343/7 75/196/7
f 71/343/7 72/344/7 75/196/7
f 133/199/27 134/345/27 127/200/27
f 140/201/39 138/146/39 118/148/39
