# Blender v2.82 (sub 7) OBJ File: 'car.blend'
# www.blender.org
mtllib wheel_left.mtl
v -0.999308 1.803121 0.676698
v -0.999308 1.935495 0.544323
v -1.224118 1.935495 0.544323
v -1.224118 1.803121 0.676698
v -0.999308 1.983948 0.363496
v -1.224118 1.983948 0.363496
v -0.999308 1.935495 0.182669
v -1.224118 1.935495 0.182669
v -0.999308 1.803121 0.050294
v -1.224118 1.803121 0.050294
v -0.999308 1.622293 0.001842
v -1.224118 1.622293 0.001842
v -0.999308 1.441468 0.050294
v -1.224118 1.441468 0.050294
v -0.999308 1.309091 0.182669
v -1.224118 1.309091 0.182669
v -0.999308 1.260641 0.363496
v -1.224118 1.260641 0.363496
v -0.999308 1.309091 0.544323
v -1.224118 1.309091 0.544323
v -0.999308 1.441468 0.676698
v -1.224118 1.441468 0.676698
v -0.999308 1.622293 0.725150
v -1.224118 1.622293 0.725150
v -1.224118 1.622293 0.363496
vt 0.894394 0.460460
vt 0.912679 0.460460
vt 0.912679 0.476837
vt 0.894394 0.476837
vt 0.930964 0.460460
vt 0.930964 0.476837
vt 0.949248 0.460460
vt 0.949248 0.476837
vt 0.967533 0.460460
vt 0.967533 0.476837
vt 0.960835 0.471988
vt 0.942550 0.471989
vt 0.942550 0.455611
vt 0.960835 0.455611
vt 0.924265 0.471989
vt 0.924265 0.455612
vt 0.905980 0.471989
vt 0.905980 0.455611
vt 0.956909 0.476456
vt 0.938624 0.476456
vt 0.938624 0.460079
vt 0.956909 0.460079
vt 0.920339 0.476456
vt 0.920339 0.460079
vt 0.902054 0.476456
vt 0.902054 0.460079
vt 0.917614 0.460735
vt 0.935900 0.460735
vt 0.935900 0.477113
vt 0.917614 0.477113
vt 0.954185 0.460735
vt 0.954185 0.477113
vt 0.495735 0.788672
vt 0.542585 0.801224
vt 0.495735 0.882374
vt 0.576885 0.835524
vt 0.589438 0.882378
vt 0.576885 0.929228
vt 0.542587 0.963524
vt 0.495735 0.976081
vt 0.448882 0.963528
vt 0.414583 0.929230
vt 0.402029 0.882378
vt 0.414583 0.835524
vt 0.448882 0.801226
vn 0.0000 0.5000 0.8660
vn 0.0000 0.8660 0.5000
vn 0.0000 1.0000 0.0000
vn 0.0000 0.8660 -0.5000
vn 0.0000 0.5000 -0.8660
vn 0.0000 -0.0000 -1.0000
vn 0.0000 -0.5000 -0.8660
vn 0.0000 -0.8660 -0.5000
vn 0.0000 -1.0000 -0.0000
vn 0.0000 -0.8660 0.5000
vn 0.0000 -0.5000 0.8660
vn 0.0000 -0.0000 1.0000
vn -1.0000 -0.0000 0.0000
vn 1.0000 -0.0000 0.0000
usemtl lambert60.001
s 1
f 1/1/1 2/2/2 3/3/2 4/4/1
f 2/2/2 5/5/3 6/6/3 3/3/2
f 5/5/3 7/7/4 8/8/4 6/6/3
f 7/7/4 9/9/5 10/10/5 8/8/4
f 9/11/5 11/12/6 12/13/6 10/14/5
f 11/12/6 13/15/7 14/16/7 12/13/6
f 13/15/7 15/17/8 16/18/8 14/16/7
f 15/19/8 17/20/9 18/21/9 16/22/8
f 17/20/9 19/23/10 20/24/10 18/21/9
f 19/23/10 21/25/11 22/26/11 20/24/10
f 21/27/11 23/28/12 24/29/12 22/30/11
f 23/28/12 1/31/1 4/32/1 24/29/12
f 4/33/13 3/34/13 25/35/13
f 3/34/13 6/36/13 25/35/13
f 6/36/13 8/37/13 25/35/13
f 8/37/13 10/38/13 25/35/13
f 10/38/13 12/39/13 25/35/13
f 12/39/13 14/40/13 25/35/13
f 14/40/13 16/41/13 25/35/13
f 16/41/13 18/42/13 25/35/13
f 18/42/13 20/43/13 25/35/13
f 20/43/13 22/44/13 25/35/13
f 22/44/13 24/45/13 25/35/13
f 24/45/13 4/33/13 25/35/13
f 1/1/14 23/28/14 2/2/14
f 2/2/14 23/28/14 5/5/14
f 5/5/14 23/28/14 7/7/14
f 7/7/14 23/28/14 9/11/14
f 9/11/14 23/28/14 11/12/14
f 11/12/14 23/28/14 13/15/14
f 13/15/14 23/28/14 15/19/14
f 15/19/14 23/28/14 17/20/14
f 17/20/14 23/28/14 19/23/14
f 19/23/14 23/28/14 21/27/14
